<svg width="214" height="56" viewBox="0 0 214 56" fill="none" xmlns="http://www.w3.org/2000/svg">
<path d="M144.09 45.733H142.991C142.904 45.7364 142.822 45.773 142.761 45.8352C142.733 45.8646 142.711 45.8993 142.696 45.9374C142.682 45.9754 142.675 46.016 142.676 46.0567C142.683 46.129 142.712 46.1973 142.759 46.2523C142.806 46.3072 142.87 46.3461 142.94 46.3635C143.034 46.3635 143.136 46.4231 143.136 46.5509V47.6756C143.131 47.7179 143.135 47.7608 143.148 47.8012C143.162 47.8416 143.184 47.8786 143.213 47.9095C143.242 47.9405 143.278 47.9645 143.318 47.9801C143.357 47.9956 143.4 48.0022 143.442 47.9994H144.149C144.439 47.9994 144.422 47.6671 144.422 47.6159V46.193C144.422 45.8778 144.234 45.733 144.09 45.733Z" fill="#7F4595"/>
<path d="M145.095 42.1205C145.106 41.7911 145.03 41.4646 144.873 41.1747C144.726 40.9147 144.533 40.6838 144.303 40.4931L144.183 40.3993C143.978 40.2405 143.758 40.1007 143.528 39.9818L142.676 39.5644L142.199 39.3684C142.012 39.2923 141.83 39.2041 141.654 39.1043C141.486 39.0088 141.331 38.8913 141.194 38.7549C141.135 38.6991 141.088 38.6318 141.056 38.557C141.024 38.4823 141.007 38.4018 141.007 38.3204C141.003 38.2275 141.018 38.1348 141.052 38.0482C141.085 37.9617 141.137 37.8831 141.203 37.8177C141.349 37.6848 141.524 37.5884 141.714 37.5365C141.953 37.4737 142.199 37.4451 142.446 37.4513C142.919 37.4416 143.391 37.4903 143.851 37.5961C144.085 37.6545 144.311 37.7403 144.524 37.8518C144.762 37.954 144.865 37.2553 144.32 37.0764C143.689 36.9377 143.048 36.855 142.404 36.8293C141.983 36.8133 141.563 36.8505 141.152 36.9401C140.847 37.0118 140.559 37.1389 140.3 37.315C140.093 37.4538 139.925 37.6448 139.815 37.8688C139.715 38.0701 139.663 38.2916 139.662 38.5163C139.654 38.7873 139.735 39.0534 139.892 39.2747C140.05 39.4925 140.246 39.68 140.471 39.8285C140.71 39.9887 140.96 40.1311 141.22 40.2545L141.952 40.5953C142.42 40.7989 142.856 41.0686 143.247 41.3962C143.546 41.7035 143.712 42.1172 143.706 42.5465C143.746 42.8158 143.708 43.0908 143.596 43.3389C143.362 43.6066 143.04 43.7814 142.688 43.8314C142.337 43.8815 141.979 43.8034 141.68 43.6115C141.549 43.5114 141.442 43.3826 141.368 43.2349C141.294 43.0872 141.255 42.9246 141.254 42.7595C141.254 42.6402 141.254 42.5039 141.254 42.3675V40.9958C141.262 40.9285 141.244 40.8607 141.205 40.8055C141.166 40.7504 141.107 40.7119 141.041 40.6976H140.249C140.203 40.6961 140.157 40.7045 140.114 40.7224C140.072 40.7402 140.033 40.7669 140.002 40.8008C139.97 40.8348 139.946 40.875 139.932 40.9189C139.917 40.9629 139.912 41.0094 139.917 41.0554V42.1375C139.911 42.4639 139.98 42.7874 140.119 43.0828C140.258 43.3783 140.463 43.6379 140.718 43.8416C141.112 44.1657 141.584 44.381 142.088 44.4662C142.591 44.5514 143.108 44.5035 143.587 44.3272L143.792 44.2505C144.113 44.1201 144.404 43.9226 144.643 43.6712C144.818 43.4561 144.949 43.208 145.026 42.9417C145.104 42.6753 145.127 42.396 145.095 42.1205Z" fill="#7F4595"/>
<path d="M149.736 43.4154C149.499 43.6182 149.196 43.7273 148.884 43.7221C148.499 43.7254 148.124 43.6021 147.817 43.3711C147.509 43.1402 147.285 42.8145 147.181 42.4441C147.159 42.3826 147.118 42.3293 147.065 42.2913C147.012 42.2533 146.948 42.2323 146.883 42.2311C146.828 42.232 146.774 42.2456 146.725 42.2707C146.677 42.2958 146.634 42.3318 146.602 42.3759C146.548 42.4626 146.521 42.5635 146.525 42.6656C146.528 42.847 146.554 43.0273 146.602 43.2024C146.695 43.6284 146.721 43.8499 146.9 44.0544C147.184 44.2274 147.499 44.3432 147.828 44.3952C148.109 44.4519 148.393 44.4861 148.68 44.4975C149.112 44.5218 149.545 44.467 149.957 44.3356L150.161 44.2589C150.483 44.1276 150.773 43.9302 151.013 43.6795C151.366 43.2627 151.543 42.725 151.507 42.1799C151.453 41.7171 151.279 41.2763 151.003 40.9011C150.727 40.526 150.357 40.2297 149.931 40.0413C149.642 39.905 148.228 39.2575 148.101 39.1893C147.934 39.0959 147.781 38.9782 147.649 38.84C147.589 38.7846 147.54 38.7175 147.507 38.6428C147.473 38.5681 147.455 38.4874 147.453 38.4054C147.448 38.3118 147.464 38.2182 147.5 38.1313C147.535 38.0444 147.589 37.9664 147.658 37.9027C147.799 37.7682 147.972 37.6715 148.16 37.6215C148.378 37.5505 148.604 37.5076 148.833 37.4937C149.305 37.4877 149.777 37.5363 150.238 37.6386C150.479 37.6704 150.709 37.7579 150.911 37.8942C151.124 38.039 151.26 37.2978 150.706 37.1189C150.08 36.9568 149.437 36.8737 148.79 36.8718C148.37 36.8558 147.949 36.893 147.539 36.9825C147.234 37.0543 146.945 37.1814 146.687 37.3574C146.482 37.4988 146.315 37.6891 146.202 37.9112C146.102 38.1126 146.049 38.3341 146.048 38.5588C146.041 38.8298 146.122 39.0959 146.278 39.3171C146.44 39.5352 146.639 39.7227 146.866 39.8709C147.103 40.0347 147.353 40.1772 147.615 40.2969L148.339 40.6377C148.687 40.7906 149.018 40.9791 149.327 41.2001C149.518 41.3184 149.688 41.4682 149.829 41.6432C149.953 41.7586 150.049 41.8997 150.113 42.0566C150.176 42.2134 150.204 42.3822 150.195 42.5511C150.186 42.72 150.14 42.8849 150.061 43.0342C149.982 43.1835 149.871 43.3136 149.736 43.4154Z" fill="#7F4595"/>
<path d="M158.166 37.366C157.547 36.8687 156.759 36.6333 155.969 36.7099C154.672 36.7601 153.419 37.1929 152.367 37.9539C152.313 38.0185 152.283 38.0997 152.282 38.1839C152.283 38.2582 152.312 38.3294 152.362 38.3843C152.412 38.4391 152.48 38.4739 152.554 38.4821C152.65 38.4927 152.747 38.4927 152.844 38.4821C153.065 38.4821 153.108 38.6185 153.108 38.6525C153.162 38.7848 153.188 38.927 153.184 39.07V43.9351C153.178 43.9792 153.181 44.0241 153.195 44.0667C153.208 44.1092 153.23 44.1482 153.26 44.1809C153.291 44.2136 153.328 44.2391 153.369 44.2556C153.41 44.272 153.455 44.279 153.499 44.276H154.232C154.53 44.276 154.504 43.9351 154.504 43.8755V39.1978C154.504 38.5588 154.257 38.3458 154.257 38.1157C154.257 37.6812 155.339 37.2637 155.96 37.2637C156.18 37.2544 156.399 37.2933 156.603 37.3777C156.806 37.4621 156.988 37.59 157.136 37.7524C157.285 37.9148 157.396 38.1077 157.462 38.3177C157.528 38.5277 157.548 38.7496 157.519 38.9678V43.8925C157.519 44.0629 157.578 44.2334 157.817 44.2334H158.549C158.847 44.2334 158.83 43.8925 158.83 43.8329V38.9507C158.826 38.3555 158.587 37.786 158.166 37.366Z" fill="#7F4595"/>
<path d="M153.968 34.4265C153.874 34.4265 153.423 34.4265 153.32 34.4265C153.248 34.4358 153.181 34.4653 153.125 34.5117C152.963 34.6789 152.831 34.8718 152.733 35.0826C152.733 35.0826 152.486 35.3552 153.031 35.3552H157.076C157.178 35.3552 158.43 35.3552 158.575 35.3552C159 35.3552 158.77 35.0741 158.77 35.0741L158.575 34.7673C158.511 34.6785 158.437 34.5983 158.353 34.5288C158.223 34.434 158.063 34.3888 157.902 34.4009L153.968 34.4265Z" fill="#7F4595"/>
<path d="M160.09 40.0073C160.187 40.0133 160.283 40.0133 160.38 40.0073C160.559 40.0073 160.635 40.0073 160.712 40.1351C160.78 40.2862 160.834 40.443 160.874 40.6037L161.666 44.1056C161.666 44.1056 161.666 44.4209 162.134 44.4209C163.106 44.5374 164.087 44.295 164.893 43.7392C165.298 43.2975 165.61 42.7786 165.811 42.2136C166.011 41.6485 166.096 41.0489 166.06 40.4504C166.08 39.8721 165.997 39.2949 165.813 38.7463C165.662 38.3129 165.414 37.9196 165.089 37.5961C164.792 37.3028 164.435 37.0787 164.042 36.94C163.646 36.7963 163.228 36.7242 162.807 36.727C161.95 36.688 161.096 36.8484 160.312 37.1956C159.971 37.3319 159.886 38.1669 160.201 37.9965C160.829 37.6518 161.529 37.4592 162.245 37.4342C162.591 37.4462 162.934 37.5153 163.258 37.6387C163.583 37.7555 163.875 37.9483 164.11 38.201C164.362 38.4892 164.548 38.8295 164.655 39.1979C164.792 39.6822 164.841 40.1873 164.799 40.6889C164.776 41.3958 164.58 42.0862 164.229 42.6998C164.104 42.9356 163.914 43.1303 163.682 43.2604C163.449 43.3904 163.183 43.4502 162.917 43.4325C162.705 43.4325 162.662 43.1684 162.628 42.9894C162.594 42.8105 161.87 39.7687 161.87 39.7687C161.854 39.6587 161.819 39.5521 161.768 39.4535C161.71 39.3957 161.636 39.357 161.555 39.3427H160.073C160.014 39.3591 159.959 39.3881 159.912 39.4279C159.883 39.4568 159.86 39.4914 159.845 39.5296C159.831 39.5678 159.824 39.6086 159.826 39.6495C159.814 39.7319 159.835 39.8158 159.885 39.8829C159.934 39.95 160.008 39.9947 160.09 40.0073Z" fill="#7F4595"/>
<path d="M173.553 37.1786C173.553 37.0423 173.511 36.8548 173.298 36.8548H173.008C172.969 36.8527 172.929 36.8592 172.893 36.8739C172.856 36.8886 172.823 36.9112 172.796 36.94C172.738 37.0056 172.707 37.0911 172.71 37.1786V40.8083C172.71 42.7679 172.123 43.5859 170.752 43.6029C169.381 43.62 168.853 42.7509 168.827 40.7912V37.136C168.829 37.0953 168.822 37.0547 168.807 37.0166C168.792 36.9786 168.77 36.9439 168.742 36.9145C168.683 36.8623 168.608 36.8322 168.529 36.8293H166.826C166.741 36.8347 166.661 36.8676 166.596 36.923C166.543 36.9846 166.513 37.063 166.511 37.1445C166.514 37.2193 166.543 37.2907 166.593 37.3466C166.642 37.4025 166.71 37.4395 166.784 37.4512C166.88 37.4572 166.977 37.4572 167.073 37.4512C167.208 37.4597 167.335 37.5173 167.431 37.6131C167.499 37.7744 167.528 37.9496 167.516 38.1243V40.9872C167.441 41.8923 167.682 42.7954 168.197 43.5433C168.53 43.8731 168.932 44.1256 169.373 44.2832C169.815 44.4407 170.285 44.4993 170.752 44.455C173.204 44.455 173.553 42.3845 173.553 40.7571V39.2235C173.549 39.1525 173.549 39.0814 173.553 39.0105V37.1786Z" fill="#7F4595"/>
<path d="M174.992 34.1368V33.8472C174.992 33.6086 174.788 33.7875 174.788 33.7875C173.862 34.38 172.778 34.6771 171.68 34.6395C171.327 34.6675 170.973 34.6037 170.653 34.4544C170.332 34.3051 170.055 34.0754 169.849 33.7875C169.849 33.7875 169.687 33.4808 169.679 33.4552C169.658 33.3944 169.619 33.3414 169.567 33.3034C169.516 33.2653 169.453 33.244 169.389 33.2422C169.336 33.2432 169.283 33.2568 169.236 33.282C169.188 33.3072 169.148 33.3432 169.117 33.3871C169.063 33.4676 169.036 33.563 169.04 33.6597C169.046 33.8667 169.074 34.0725 169.125 34.2732C169.21 34.6821 169.236 34.9037 169.415 35.0656C169.688 35.2414 169.996 35.3549 170.317 35.3979C170.617 35.4632 170.922 35.4975 171.229 35.5001C173.511 35.5001 174.396 34.81 174.924 34.3584C174.974 34.2959 174.999 34.2167 174.992 34.1368Z" fill="#7F4595"/>
<path d="M185.024 44.2674H186.31C186.394 44.2619 186.475 44.229 186.54 44.1736C186.593 44.112 186.623 44.0336 186.625 43.9521C186.623 43.8769 186.595 43.8046 186.545 43.7483C186.495 43.6921 186.427 43.6556 186.352 43.6454C186.259 43.639 186.165 43.639 186.071 43.6454C185.833 43.6454 185.731 43.5346 185.705 43.4835C185.628 43.3248 185.596 43.148 185.611 42.9723V37.2296C185.611 37.2296 185.611 36.9314 185.364 36.9314H184.589C184.504 36.9314 184.291 36.9314 184.291 37.2296V41.2341C184.312 41.5274 184.256 41.8209 184.13 42.0862C183.757 42.6596 183.215 43.1032 182.58 43.3557C182.46 43.3959 182.338 43.4273 182.214 43.4494C182.078 43.4925 181.932 43.4925 181.796 43.4494C181.651 43.3841 181.527 43.2791 181.438 43.1466C181.349 43.014 181.299 42.8591 181.294 42.6996C181.294 42.6144 181.294 40.6888 181.294 40.6888V39.1381C181.308 38.8228 181.255 38.508 181.139 38.2145C181.023 37.9209 180.847 37.655 180.621 37.4341C180.005 36.9322 179.215 36.6934 178.424 36.7695C177.126 36.8227 175.873 37.2584 174.822 38.022C174.769 38.0836 174.739 38.162 174.737 38.2435C174.74 38.3182 174.769 38.3897 174.818 38.4456C174.868 38.5015 174.936 38.5385 175.009 38.5502H175.29C175.529 38.5928 175.563 38.6866 175.563 38.7121C175.621 38.8433 175.647 38.9863 175.64 39.1296V43.9862C175.641 44.0677 175.671 44.1461 175.725 44.2077C175.753 44.2341 175.787 44.2546 175.823 44.2677C175.86 44.2809 175.899 44.2866 175.938 44.2844H177.641C177.723 44.286 177.802 44.2554 177.862 44.1992C177.892 44.1711 177.915 44.1366 177.93 44.0982C177.945 44.0598 177.951 44.0186 177.947 43.9777C177.946 43.9037 177.919 43.8324 177.871 43.7763C177.823 43.7202 177.756 43.6829 177.683 43.671C177.587 43.665 177.49 43.665 177.394 43.671C177.257 43.6615 177.127 43.6042 177.028 43.5091L176.985 43.3898V39.3C176.985 38.661 176.738 38.448 176.738 38.2179C176.738 37.7834 177.828 37.3659 178.441 37.3659C178.661 37.355 178.881 37.3929 179.085 37.4768C179.289 37.5607 179.472 37.6886 179.621 37.8514C179.77 38.0141 179.881 38.2077 179.946 38.4183C180.012 38.629 180.03 38.8515 180 39.07V42.8445C179.989 43.0578 180.023 43.2709 180.099 43.4704C180.176 43.6698 180.292 43.8513 180.442 44.0032C180.769 44.2667 181.181 44.4002 181.601 44.3781C182.131 44.3387 182.648 44.186 183.115 43.9303C183.582 43.6746 183.989 43.3218 184.308 42.8956V43.6624C184.317 44.1992 185.024 44.2674 185.024 44.2674Z" fill="#7F4595"/>
<path d="M194.059 44.0204C194.052 43.9482 194.023 43.8798 193.976 43.8249C193.929 43.7699 193.865 43.731 193.795 43.7136C193.718 43.7136 193.625 43.6625 193.599 43.5773V38.4651C193.613 38.2528 193.58 38.04 193.504 37.8415C193.427 37.6429 193.309 37.4632 193.156 37.3149C192.852 37.0321 192.447 36.8819 192.032 36.8974C191.115 36.9685 190.253 37.3607 189.597 38.005C189.692 37.6994 189.727 37.3782 189.699 37.0593C189.7 37.0384 189.697 37.0175 189.69 36.9979C189.683 36.9783 189.672 36.9604 189.657 36.9453C189.643 36.9301 189.626 36.918 189.606 36.9098C189.587 36.9016 189.567 36.8973 189.546 36.8974H189.282C189.154 36.8974 189.12 37.0593 189.12 37.0593C189.12 37.0593 189.043 37.775 188.439 37.775C188.346 37.7685 188.256 37.7437 188.173 37.7019C188.09 37.6602 188.016 37.6023 187.956 37.5317C187.896 37.4611 187.85 37.3792 187.822 37.2907C187.794 37.2023 187.783 37.1091 187.791 37.0166C187.792 36.9983 187.788 36.9802 187.78 36.9635C187.773 36.9467 187.762 36.9318 187.748 36.9197C187.735 36.9076 187.718 36.8985 187.701 36.8932C187.683 36.8879 187.665 36.8864 187.647 36.8888H187.161C187.12 36.891 187.081 36.909 187.052 36.9392C187.024 36.9693 187.008 37.0092 187.008 37.0507C187.01 37.2293 187.05 37.4054 187.125 37.5677C187.2 37.7299 187.307 37.8747 187.441 37.9928C187.575 38.1108 187.733 38.1994 187.903 38.2528C188.073 38.3063 188.253 38.3235 188.43 38.3032H188.652C188.217 38.698 187.931 39.2305 187.843 39.8113V43.9863C187.836 44.0303 187.84 44.0753 187.853 44.1178C187.866 44.1604 187.888 44.1994 187.919 44.2321C187.949 44.2648 187.986 44.2903 188.027 44.3067C188.069 44.3232 188.113 44.3301 188.158 44.3271H188.898C189.205 44.3271 189.18 43.9863 189.18 43.9267V39.8028C189.188 39.6264 189.243 39.4556 189.341 39.3086C189.473 39.0966 189.63 38.902 189.81 38.7292C189.99 38.5513 190.19 38.3941 190.406 38.2606C190.595 38.1468 190.798 38.058 191.01 37.9965C191.133 37.9562 191.258 37.9249 191.385 37.9028C191.519 37.8696 191.66 37.8696 191.794 37.9028C191.934 37.9607 192.048 38.0664 192.117 38.201C192.229 38.4313 192.279 38.6868 192.262 38.9422V43.9607C192.257 44.0061 192.257 44.0517 192.262 44.0971C192.262 44.3101 192.518 44.3101 192.594 44.3101H193.744C193.786 44.3086 193.827 44.2988 193.865 44.2812C193.903 44.2637 193.937 44.2387 193.965 44.2078C194.016 44.1571 194.049 44.0913 194.059 44.0204Z" fill="#7F4595"/>
<path d="M188.089 34.4521C188.017 34.4613 187.95 34.4909 187.894 34.5373C187.732 34.7044 187.6 34.8974 187.502 35.1081C187.502 35.1081 187.255 35.3808 187.8 35.3808H191.836C191.939 35.3808 193.19 35.3808 193.335 35.3808C193.761 35.3808 193.539 35.0996 193.539 35.0996L193.335 34.7929C193.272 34.7041 193.197 34.6239 193.114 34.5543C192.983 34.4596 192.823 34.4143 192.662 34.4265H188.728C188.643 34.4265 188.192 34.435 188.089 34.4521Z" fill="#7F4595"/>
<path d="M200.854 44.2674H201.595C201.842 44.2674 201.859 44.097 201.859 43.9266V39.5812C201.858 39.2445 201.8 38.9105 201.689 38.5928C201.571 38.2841 201.404 37.9963 201.195 37.7408C200.993 37.4859 200.744 37.2719 200.462 37.1103C200.264 37.0059 200.052 36.9313 199.832 36.8888C199.754 36.8647 199.67 36.8592 199.589 36.8725C199.508 36.8858 199.431 36.9176 199.364 36.9655L198.598 37.63C198.531 37.6833 198.448 37.7123 198.363 37.7123C198.278 37.7123 198.196 37.6833 198.129 37.63L197.38 36.974C197.302 36.9184 197.211 36.883 197.116 36.8711C197.021 36.8592 196.924 36.8711 196.835 36.9058C196.689 36.95 196.547 37.004 196.409 37.0677C196.105 37.2176 195.835 37.4294 195.617 37.6897C195.344 38.0054 195.138 38.3737 195.012 38.7718C194.725 39.7644 194.693 40.8136 194.919 41.822C195.017 42.2565 195.169 42.6771 195.37 43.0745C195.574 43.4494 196.392 44.4719 197.244 44.4719H198.095C198.139 44.4738 198.183 44.4665 198.224 44.4503C198.265 44.4342 198.303 44.4096 198.334 44.3782C198.385 44.3127 198.412 44.2314 198.41 44.1481C198.406 44.0761 198.377 44.0076 198.329 43.9536C198.282 43.8995 198.217 43.863 198.146 43.8499C196.801 43.8499 196.23 42.444 196.128 41.8306C195.975 40.9661 195.995 40.0799 196.188 39.2233C196.259 38.962 196.384 38.7183 196.554 38.5076C196.69 38.3281 196.861 38.1775 197.056 38.0646C197.142 38.0097 197.233 37.964 197.329 37.9282C197.421 37.8936 197.522 37.888 197.618 37.9124C197.714 37.9368 197.8 37.9899 197.865 38.0646L198.172 38.3457C198.235 38.4015 198.317 38.4322 198.402 38.4322C198.486 38.4322 198.568 38.4015 198.632 38.3457C198.743 38.2267 198.866 38.1183 198.998 38.022C199.097 37.9499 199.216 37.9111 199.338 37.9111C199.461 37.9111 199.58 37.9499 199.679 38.022C199.85 38.1022 200.006 38.2118 200.139 38.3457C200.282 38.4976 200.397 38.6735 200.479 38.8655C200.535 39.022 200.57 39.1854 200.582 39.3511C200.582 39.5216 200.582 39.8027 200.582 39.9817V43.9351C200.573 43.9351 200.556 44.2674 200.854 44.2674Z" fill="#7F4595"/>
<path d="M203.102 37.8261V38.0221C203.1 38.2331 203.114 38.4439 203.145 38.6526C203.169 38.8586 203.239 39.0565 203.349 39.232C203.477 39.4256 203.645 39.5886 203.843 39.7091C204.122 39.8701 204.428 39.9771 204.746 40.0244C204.395 40.1373 204.067 40.3103 203.775 40.5356C203.58 40.6928 203.418 40.8867 203.298 41.1065C203.204 41.2768 203.149 41.466 203.136 41.6603C203.136 41.8392 203.136 41.9926 203.136 42.1374C203.133 42.4486 203.198 42.7567 203.328 43.0396C203.457 43.3224 203.648 43.573 203.886 43.7733C204.162 43.9957 204.477 44.1661 204.814 44.276C205.222 44.4017 205.647 44.4621 206.074 44.455C206.882 44.5086 207.681 44.273 208.331 43.7904C208.586 43.5867 208.791 43.3271 208.93 43.0316C209.068 42.7362 209.137 42.4127 209.131 42.0863V37.8261C209.131 37.7239 209.242 37.6898 209.319 37.6728C209.389 37.6554 209.452 37.6165 209.5 37.5616C209.547 37.5066 209.576 37.4383 209.583 37.366C209.585 37.2853 209.558 37.2066 209.506 37.1445C209.478 37.1136 209.444 37.0886 209.406 37.0711C209.368 37.0535 209.327 37.0437 209.285 37.0423H208.135C208.092 37.0345 208.048 37.0366 208.006 37.0482C207.964 37.0598 207.926 37.0807 207.893 37.1093C207.86 37.138 207.834 37.1736 207.817 37.2137C207.8 37.2537 207.792 37.297 207.794 37.3405V42.1715C207.816 42.409 207.781 42.6481 207.694 42.8699C207.607 43.0918 207.469 43.2903 207.292 43.4496C206.942 43.7147 206.513 43.8529 206.074 43.8415C205.828 43.8498 205.583 43.7909 205.368 43.6711C205.172 43.5701 205 43.4276 204.865 43.2536C204.729 43.0839 204.625 42.8903 204.559 42.6827C204.493 42.4848 204.458 42.2778 204.456 42.0693C204.429 41.8229 204.453 41.5736 204.528 41.3373C204.603 41.101 204.726 40.883 204.891 40.6975C205.243 40.4238 205.679 40.2794 206.125 40.2885C206.189 40.2885 206.249 40.2634 206.294 40.2186C206.339 40.1739 206.364 40.1132 206.364 40.0499C206.364 39.9867 206.339 39.926 206.294 39.8813C206.249 39.8365 206.189 39.8114 206.125 39.8114C205.707 39.7798 205.306 39.6323 204.967 39.3854C204.799 39.231 204.669 39.0401 204.586 38.8274C204.504 38.6147 204.471 38.3858 204.49 38.1584C204.481 38.0592 204.481 37.9594 204.49 37.8602C204.49 37.8091 204.627 37.7324 204.857 37.6898H205.146C205.203 37.6791 205.256 37.6535 205.299 37.6156C205.342 37.5776 205.375 37.5287 205.393 37.474C205.411 37.4193 205.415 37.3607 205.403 37.3042C205.391 37.2478 205.364 37.1956 205.325 37.153C205.261 37.0977 205.179 37.0675 205.095 37.0678H203.69C203.63 36.9997 203.102 36.9911 203.102 37.8261Z" fill="#7F4595"/>
<path d="M207.403 35.3807C207.437 35.4716 207.5 35.5491 207.582 35.6022C207.628 35.6291 207.681 35.6433 207.735 35.6433C207.789 35.6433 207.842 35.6291 207.888 35.6022C207.946 35.5742 207.994 35.5286 208.024 35.4721C208.055 35.4155 208.067 35.3507 208.058 35.287V35.0143C208.098 34.6669 208.228 34.336 208.436 34.0549C208.644 33.7737 208.922 33.5522 209.242 33.4125C209.534 33.2518 209.85 33.1423 210.179 33.0887C210.179 33.0887 210.409 33.0887 210.409 32.8757C210.409 32.6627 210.409 32.7053 210.409 32.6201C210.409 32.5794 210.393 32.5404 210.364 32.5116C210.335 32.4829 210.296 32.4667 210.255 32.4667C209.362 32.4936 208.498 32.7906 207.777 33.3188C207.501 33.4921 207.272 33.7324 207.113 34.0174C207.028 34.239 207.113 34.452 207.198 34.8695C207.232 35.0517 207.302 35.2254 207.403 35.3807Z" fill="#7F4595"/>
<path d="M112.684 41.1065C112.592 41.278 112.534 41.4662 112.514 41.6603C112.514 41.8392 112.514 41.9926 112.514 42.1374C112.514 42.4488 112.582 42.7564 112.713 43.0388C112.844 43.3213 113.035 43.5719 113.272 43.7733C113.544 43.9975 113.856 44.168 114.192 44.276C114.6 44.4017 115.025 44.4621 115.452 44.455C116.262 44.5062 117.063 44.2709 117.717 43.7904C117.971 43.5854 118.174 43.3256 118.313 43.0304C118.452 42.7352 118.522 42.4124 118.518 42.0863V37.8261C118.527 37.7846 118.549 37.7472 118.581 37.7196C118.614 37.6919 118.654 37.6755 118.696 37.6728C118.769 37.6582 118.835 37.6204 118.884 37.565C118.933 37.5097 118.963 37.4398 118.969 37.366C118.97 37.3253 118.963 37.2847 118.949 37.2467C118.934 37.2087 118.912 37.1739 118.884 37.1445C118.829 37.0841 118.752 37.0474 118.671 37.0423H117.504C117.411 37.0423 117.155 37.0423 117.155 37.3405V42.1971C117.178 42.4346 117.144 42.6742 117.057 42.8963C116.969 43.1183 116.831 43.3167 116.653 43.4751C116.304 43.7428 115.874 43.8813 115.435 43.8671C115.191 43.8755 114.949 43.8166 114.737 43.6967C114.54 43.5935 114.366 43.4514 114.226 43.2792C114.095 43.107 113.994 42.914 113.928 42.7083C113.855 42.5118 113.818 42.3042 113.817 42.0948C113.789 41.8485 113.814 41.5991 113.889 41.3629C113.964 41.1266 114.087 40.9086 114.251 40.7231C114.605 40.4512 115.04 40.307 115.486 40.3141C115.549 40.3141 115.61 40.2889 115.655 40.2442C115.699 40.1995 115.724 40.1388 115.724 40.0755C115.724 40.0122 115.699 39.9516 115.655 39.9068C115.61 39.8621 115.549 39.8369 115.486 39.8369C115.071 39.8051 114.672 39.6575 114.336 39.4109C114.165 39.2586 114.032 39.0683 113.948 38.8552C113.864 38.6421 113.83 38.4122 113.851 38.184C113.846 38.0847 113.846 37.9851 113.851 37.8858C113.851 37.8858 113.979 37.758 114.209 37.7154H114.498C114.557 37.7074 114.611 37.6833 114.657 37.6457C114.702 37.6081 114.736 37.5586 114.755 37.5027C114.773 37.4468 114.776 37.3868 114.762 37.3295C114.748 37.2723 114.719 37.22 114.677 37.1786C114.616 37.1246 114.537 37.0943 114.456 37.0934H113.085C113.016 37.0934 112.48 37.0934 112.48 37.9454V38.1414C112.468 38.3514 112.468 38.5619 112.48 38.7719C112.511 38.9775 112.583 39.1746 112.693 39.3513C112.82 39.5449 112.989 39.7079 113.187 39.8284C113.465 39.9894 113.771 40.0964 114.089 40.1437C113.739 40.2566 113.41 40.4296 113.119 40.6549C112.948 40.7787 112.801 40.9316 112.684 41.1065Z" fill="#7F4595"/>
<path d="M131.376 43.9352C131.369 43.863 131.34 43.7947 131.293 43.7397C131.246 43.6848 131.182 43.6459 131.112 43.6285C131.027 43.6285 130.925 43.5774 130.908 43.4751C130.891 43.3729 130.908 42.0096 130.908 41.9159V38.8827C130.921 38.4173 130.783 37.9601 130.516 37.5791C130.238 37.2066 129.846 36.9345 129.4 36.8037C128.83 36.6432 128.231 36.6111 127.646 36.71C126.944 36.81 126.261 37.0139 125.619 37.3149C125.519 37.3477 125.428 37.4021 125.351 37.4742C125.275 37.5464 125.215 37.6346 125.177 37.7324C125.177 37.7324 125.074 38.2096 125.39 38.0732C125.939 37.8356 126.509 37.6474 127.093 37.5109C127.54 37.4114 128.002 37.3941 128.455 37.4598C128.781 37.4992 129.083 37.6532 129.307 37.8943C129.5 38.1357 129.602 38.4372 129.596 38.7463V40.1181C129.058 39.8882 128.478 39.7749 127.893 39.7858C127.466 39.782 127.041 39.8453 126.633 39.9733C126.297 40.0813 125.985 40.2519 125.713 40.476C125.476 40.6774 125.285 40.928 125.154 41.2105C125.023 41.493 124.955 41.8005 124.955 42.1119C124.955 42.2567 124.955 42.3164 124.955 42.4868C124.974 42.7137 125.031 42.9357 125.126 43.1428C125.27 43.4328 125.48 43.6853 125.739 43.8804C125.997 44.0756 126.297 44.2081 126.616 44.2675C127.047 44.2963 127.479 44.2963 127.91 44.2675C127.972 44.264 128.03 44.2365 128.072 44.1909C128.095 44.1671 128.112 44.139 128.124 44.1083C128.136 44.0775 128.141 44.0448 128.14 44.0119C128.134 43.9559 128.11 43.9033 128.071 43.8619C128.033 43.8205 127.983 43.7924 127.927 43.7819C127.484 43.739 127.059 43.5836 126.692 43.3303C126.386 43.0917 126.25 42.8787 126.25 42.2226C126.255 42.0137 126.292 41.8067 126.36 41.6092C126.427 41.4034 126.528 41.2104 126.658 41.0383C126.799 40.8641 126.973 40.7193 127.169 40.6123C127.384 40.4992 127.625 40.4435 127.868 40.4504C128.307 40.4362 128.737 40.5747 129.085 40.8424C129.265 41 129.405 41.1979 129.494 41.42C129.583 41.6422 129.618 41.8822 129.596 42.1204V43.9352C129.596 44.242 129.843 44.242 129.937 44.242H131.086C131.127 44.2414 131.167 44.232 131.204 44.2143C131.241 44.1967 131.273 44.1712 131.299 44.1397C131.349 44.0833 131.376 44.0105 131.376 43.9352Z" fill="#7F4595"/>
<path d="M126.939 33.7619L126.761 33.4296C126.741 33.3681 126.702 33.3145 126.65 33.2762C126.598 33.238 126.535 33.2171 126.471 33.2166C126.417 33.2176 126.365 33.2312 126.317 33.2564C126.27 33.2816 126.229 33.3175 126.198 33.3614C126.147 33.4428 126.124 33.5383 126.13 33.6341C126.132 33.8409 126.157 34.0468 126.207 34.2476C126.301 34.6565 126.326 34.8781 126.497 35.04C126.77 35.2143 127.078 35.3277 127.399 35.3722C127.699 35.4371 128.004 35.4714 128.31 35.4745C130.584 35.4745 131.478 34.7843 132.006 34.3328C132.05 34.277 132.074 34.2079 132.074 34.1368V33.8471C132.074 33.6085 131.861 33.7875 131.861 33.7875C130.939 34.3818 129.858 34.6792 128.762 34.6395C128.408 34.6648 128.054 34.5972 127.734 34.4432C127.414 34.2893 127.14 34.0544 126.939 33.7619Z" fill="#7F4595"/>
<path d="M122.367 43.6115V43.9779C122.367 44.2846 122.579 44.2846 122.665 44.2846H123.806C123.847 44.2847 123.889 44.2762 123.927 44.2598C123.965 44.2433 124 44.2192 124.029 44.1889C124.057 44.1585 124.08 44.1227 124.094 44.0835C124.108 44.0443 124.115 44.0025 124.112 43.9609C124.105 43.8886 124.076 43.8203 124.029 43.7653C123.982 43.7104 123.919 43.6715 123.848 43.6541C123.789 43.6541 123.686 43.603 123.686 43.4156V38.4908C123.677 38.1842 123.576 37.8874 123.397 37.6388C123.203 37.3469 122.928 37.1187 122.605 36.9827C122.227 36.841 121.823 36.7856 121.421 36.8208C120.962 36.867 120.519 37.0186 120.127 37.2639C119.956 37.3583 119.819 37.5044 119.735 37.6814C119.659 37.8858 119.888 37.9625 119.999 37.8944C120.25 37.7582 120.52 37.6605 120.8 37.6047C121.064 37.5488 121.336 37.5488 121.6 37.6047C121.823 37.6566 122.019 37.7866 122.154 37.9711C122.239 38.0938 122.297 38.2332 122.324 38.38C122.324 38.559 122.324 38.8401 122.324 39.0105V43.6115H122.367Z" fill="#7F4595"/>
<path d="M132.432 39.232C132.557 39.4275 132.726 39.5909 132.926 39.7091C133.204 39.8701 133.51 39.977 133.829 40.0244C133.476 40.1334 133.147 40.3067 132.858 40.5356C132.661 40.6927 132.496 40.8866 132.372 41.1064C132.282 41.2783 132.227 41.4667 132.211 41.6603C132.211 41.8392 132.211 41.9926 132.211 42.1374C132.214 42.4313 132.277 42.7214 132.398 42.9894C132.529 43.2769 132.724 43.5304 132.968 43.7307C133.241 43.9548 133.553 44.1254 133.888 44.2334C134.296 44.3591 134.722 44.4195 135.148 44.4123C135.956 44.466 136.756 44.2304 137.405 43.7478C137.66 43.5441 137.865 43.2845 138.004 42.989C138.142 42.6935 138.212 42.3701 138.206 42.0437V37.7835C138.206 37.6813 138.316 37.6472 138.393 37.6301C138.464 37.6132 138.529 37.5746 138.577 37.5197C138.626 37.4649 138.657 37.3963 138.665 37.3234C138.664 37.2419 138.634 37.1635 138.58 37.1019C138.552 37.071 138.518 37.046 138.48 37.0285C138.442 37.0109 138.401 37.0011 138.359 36.9996H137.192C137.149 36.9919 137.105 36.9939 137.063 37.0056C137.022 37.0172 136.983 37.0381 136.95 37.0667C136.917 37.0954 136.892 37.131 136.874 37.171C136.857 37.211 136.85 37.2544 136.852 37.2979V42.1289C136.873 42.3663 136.839 42.6055 136.751 42.8273C136.664 43.0492 136.526 43.2476 136.349 43.4069C136 43.6733 135.57 43.8117 135.131 43.7989C134.885 43.8063 134.641 43.7475 134.425 43.6285C134.23 43.5251 134.059 43.383 133.922 43.211C133.789 43.0392 133.685 42.8462 133.616 42.6401C133.55 42.4422 133.516 42.2352 133.513 42.0266C133.486 41.7803 133.51 41.531 133.585 41.2947C133.66 41.0584 133.784 40.8404 133.948 40.6549C134.3 40.3812 134.736 40.2368 135.182 40.2459C135.246 40.2459 135.306 40.2208 135.351 40.176C135.396 40.1313 135.421 40.0706 135.421 40.0073C135.421 39.944 135.396 39.8834 135.351 39.8386C135.306 39.7939 135.246 39.7688 135.182 39.7688C134.765 39.7358 134.364 39.5884 134.024 39.3427C133.856 39.1884 133.726 38.9975 133.643 38.7848C133.561 38.5721 133.528 38.3432 133.548 38.1158C133.543 38.0165 133.543 37.9169 133.548 37.8176C133.548 37.8176 133.675 37.6898 133.905 37.6472H134.195C134.269 37.6354 134.336 37.5985 134.386 37.5425C134.435 37.4866 134.464 37.4152 134.467 37.3405C134.467 37.2978 134.459 37.2556 134.443 37.2161C134.427 37.1766 134.404 37.1407 134.374 37.1104C134.312 37.0564 134.234 37.0261 134.152 37.0252H132.781C132.713 37.0252 132.177 37.0252 132.177 37.8772V38.0732C132.164 38.2832 132.164 38.4937 132.177 38.7037C132.22 38.897 132.308 39.0778 132.432 39.232Z" fill="#7F4595"/>
<path d="M110.36 44.2675H111.1C111.407 44.2675 111.381 43.9182 111.381 43.8586V38.3629C111.394 38.1494 111.361 37.9357 111.285 37.7359C111.208 37.5361 111.09 37.3549 110.939 37.2042C110.635 36.9266 110.234 36.7797 109.823 36.7952C109.263 36.8463 108.719 37.0118 108.226 37.2815C107.732 37.5511 107.299 37.9192 106.953 38.3629V37.5109C106.962 37.4389 106.955 37.366 106.933 37.2969C106.911 37.2278 106.875 37.1642 106.827 37.1102C106.778 37.0562 106.719 37.0131 106.653 36.9838C106.587 36.9545 106.515 36.9395 106.442 36.94H104.978C104.893 36.9455 104.812 36.9784 104.748 37.0338C104.693 37.0946 104.663 37.1735 104.663 37.2553C104.664 37.3305 104.692 37.4028 104.742 37.4591C104.792 37.5154 104.861 37.5519 104.935 37.562C105.032 37.5689 105.128 37.5689 105.225 37.562C105.359 37.5727 105.486 37.6299 105.582 37.7239C105.651 37.885 105.677 38.061 105.659 38.2351V43.8841C105.654 43.9286 105.659 43.9737 105.673 44.0162C105.687 44.0587 105.71 44.0976 105.741 44.1301C105.772 44.1625 105.81 44.1879 105.851 44.2043C105.893 44.2207 105.938 44.2277 105.983 44.2249H106.681C106.987 44.2249 106.97 43.8756 106.97 43.816V39.5558C106.999 39.4282 107.051 39.307 107.124 39.1979C107.255 38.9859 107.412 38.7913 107.592 38.6185C107.772 38.4361 107.975 38.2785 108.197 38.1499C108.38 38.0314 108.581 37.9423 108.793 37.8858L109.167 37.7836C109.301 37.7447 109.443 37.7447 109.576 37.7836C109.719 37.8404 109.836 37.9461 109.908 38.0818C110.017 38.3099 110.064 38.5626 110.044 38.8145V43.8415C110.02 43.8906 110.01 43.9454 110.015 44C110.02 44.0545 110.04 44.1066 110.072 44.1506C110.105 44.1945 110.149 44.2287 110.2 44.2494C110.25 44.27 110.306 44.2763 110.36 44.2675Z" fill="#7F4595"/>
<path d="M104.271 35.0996L104.075 34.7929C104.01 34.7061 103.935 34.6262 103.854 34.5543C103.723 34.4596 103.563 34.4143 103.402 34.4265H99.4683C99.3746 34.4265 98.9233 34.4265 98.8211 34.4265C98.7485 34.4337 98.68 34.4635 98.6252 34.5117C98.4638 34.6789 98.3314 34.8718 98.2335 35.0826C98.2335 35.0826 97.9866 35.3552 98.523 35.3552H102.576C102.679 35.3552 103.93 35.3552 104.075 35.3552C104.501 35.3808 104.271 35.0996 104.271 35.0996Z" fill="#7F4595"/>
<path d="M102.372 42.2738C102.201 42.6371 101.944 42.953 101.623 43.194C101.309 43.4176 100.942 43.5556 100.558 43.5945C100.24 43.6131 99.9211 43.5815 99.6129 43.5007C99.577 43.4894 99.5388 43.4871 99.5017 43.4941C99.4646 43.501 99.4298 43.517 99.4004 43.5406C99.371 43.5641 99.3477 43.5946 99.3328 43.6292C99.3179 43.6639 99.3118 43.7017 99.3149 43.7393V44.0375C99.3148 44.1182 99.3456 44.1959 99.4011 44.2546C99.4565 44.3133 99.5324 44.3484 99.6129 44.3528C99.9536 44.3528 100.269 44.4209 100.584 44.4209C101.001 44.4179 101.416 44.3459 101.81 44.2079C102.24 44.0538 102.634 43.8131 102.968 43.5007C103.333 43.1479 103.623 42.7247 103.82 42.2568C104.057 41.6848 104.173 41.0697 104.16 40.4504C104.168 39.815 104.016 39.1879 103.717 38.6271C103.441 38.1117 103.033 37.6794 102.534 37.3746C102.012 37.0769 101.43 36.9021 100.831 36.8634C100.247 36.83 99.6632 36.9351 99.1276 37.1701C98.8481 37.2791 98.5974 37.4511 98.3952 37.6728C98.2419 37.8688 98.3952 38.1926 98.7103 38.0051C99.2637 37.7011 99.8956 37.5705 100.524 37.6302C100.998 37.6869 101.443 37.8859 101.801 38.2011C102.146 38.5355 102.401 38.9517 102.542 39.411C102.696 39.9039 102.756 40.421 102.721 40.9361C102.702 41.4018 102.583 41.858 102.372 42.2738Z" fill="#7F4595"/>
<path d="M86.1754 37.4513C86.2689 37.4576 86.3628 37.4576 86.4564 37.4513C86.5936 37.4607 86.7232 37.518 86.8226 37.6131C86.8311 37.6582 86.8311 37.7044 86.8226 37.7495C86.8318 37.8885 86.8318 38.028 86.8226 38.167V43.8841C86.8226 44.0545 86.8907 44.2249 87.1376 44.2249H87.9466C88.2447 44.2249 88.2276 43.8415 88.2276 43.7819V40.9957C88.6364 40.5697 89.3687 39.854 89.4879 39.7432C89.7509 39.751 90.0129 39.7795 90.2714 39.8284C91.3613 40.0329 91.421 40.7401 91.421 41.115V43.8841C91.4145 43.9282 91.418 43.9731 91.4312 44.0156C91.4443 44.0582 91.4668 44.0972 91.497 44.1299C91.5273 44.1626 91.5644 44.1881 91.6058 44.2045C91.6471 44.221 91.6916 44.2279 91.736 44.2249H92.4428C92.7494 44.2249 92.7238 43.8415 92.7238 43.7819V41.2258C92.7506 40.8773 92.6541 40.5305 92.4513 40.2459C92.2494 39.9991 91.9967 39.7985 91.7105 39.658C91.4424 39.527 91.1548 39.4407 90.8589 39.4024C90.629 39.4024 90.1947 39.4024 89.9563 39.3513C90.4832 38.8173 91.0528 38.3272 91.6594 37.8858C91.8737 37.7633 92.1068 37.6769 92.3492 37.6302C92.42 37.6365 92.4912 37.6365 92.562 37.6302C92.6289 37.6134 92.6885 37.5752 92.7315 37.5213C92.7746 37.4674 92.7988 37.4009 92.8005 37.332C92.7994 37.2535 92.7706 37.1779 92.7192 37.1187C92.6677 37.0594 92.597 37.0203 92.5195 37.0082H91.421C91.363 37.0166 91.3092 37.0435 91.2677 37.0849L88.2021 40.0074V37.332C88.2021 37.1104 88.2021 37.0252 88.1084 36.9571C88.0494 36.9049 87.9742 36.8748 87.8955 36.8719H86.2435C86.1587 36.8773 86.078 36.9102 86.0136 36.9656C85.9846 36.9944 85.962 37.0291 85.9473 37.0672C85.9326 37.1054 85.9262 37.1463 85.9284 37.1871C85.9375 37.2512 85.9661 37.3109 86.0103 37.3582C86.0545 37.4054 86.1121 37.4379 86.1754 37.4513Z" fill="#7F4595"/>
<path d="M93.8565 37.9369C94.1056 37.7971 94.3761 37.6992 94.6569 37.6472C94.9208 37.5913 95.1935 37.5913 95.4574 37.6472C95.6798 37.6991 95.8762 37.8291 96.0109 38.0135C96.1001 38.134 96.1586 38.2744 96.1812 38.4225C96.1942 38.6325 96.1942 38.8431 96.1812 39.053V43.9607C96.1812 44.2675 96.3856 44.2675 96.4708 44.2675H97.6118C97.6536 44.2675 97.6949 44.2591 97.7332 44.2426C97.7716 44.2261 97.8062 44.202 97.8349 44.1717C97.8636 44.1414 97.8858 44.1055 97.9001 44.0663C97.9145 44.0271 97.9207 43.9854 97.9184 43.9437C97.9117 43.8715 97.8826 43.8031 97.8353 43.7482C97.788 43.6932 97.7248 43.6544 97.6544 43.637C97.5903 43.6282 97.5322 43.5945 97.4926 43.5432V38.5333C97.4834 38.2267 97.3826 37.9299 97.2031 37.6813C97.0102 37.3866 96.7348 37.1554 96.4111 37.0167C96.0329 36.8781 95.6285 36.8257 95.2275 36.8633C94.7677 36.9095 94.3248 37.0611 93.9331 37.3064C93.7583 37.3961 93.6199 37.5436 93.5414 37.7239C93.5159 37.9283 93.7458 38.005 93.8565 37.9369Z" fill="#7F4595"/>
<path d="M79.014 43.4665C79.014 43.5176 78.8778 43.5943 78.6478 43.6284C78.5514 43.6224 78.4547 43.6224 78.3583 43.6284C78.2853 43.6404 78.2189 43.6777 78.1706 43.7338C78.1224 43.7899 78.0954 43.8611 78.0943 43.9351C78.0921 43.976 78.0985 44.0169 78.1132 44.055C78.1279 44.0932 78.1505 44.1279 78.1795 44.1567C78.2433 44.2131 78.3243 44.2462 78.4094 44.2504H79.6867C79.6867 44.2504 80.385 44.2504 80.385 43.6284V42.8616C80.7413 43.2817 81.1797 43.6247 81.6731 43.8693C82.1666 44.114 82.7048 44.2553 83.2548 44.2845C83.6682 44.2986 84.071 44.152 84.3788 43.8755C84.5298 43.7261 84.6474 43.5463 84.7238 43.348C84.8001 43.1497 84.8335 42.9374 84.8216 42.7253V37.1955C84.8216 37.1359 84.8216 36.7866 84.5406 36.7866H83.7997C83.5528 36.7866 83.4847 36.957 83.4847 37.1359V42.18C83.4988 42.4316 83.452 42.683 83.3484 42.9127C83.2766 43.0484 83.1589 43.154 83.0163 43.2109C82.8835 43.2539 82.7404 43.2539 82.6076 43.2109C82.4806 43.1888 82.3554 43.1575 82.2329 43.1172C81.5854 42.8559 81.0037 42.4544 80.5298 41.9414C80.3934 41.7702 80.3238 41.5552 80.3339 41.3364V37.0763C80.3332 36.9929 80.2995 36.9133 80.2402 36.8547C80.1813 36.8026 80.106 36.7725 80.0274 36.7695H78.3242C78.2392 36.7737 78.1581 36.8068 78.0943 36.8633C78.0653 36.8921 78.0427 36.9267 78.028 36.9649C78.0134 37.0031 78.0069 37.0439 78.0092 37.0848C78.0102 37.1588 78.0372 37.2301 78.0855 37.2861C78.1337 37.3422 78.2002 37.3795 78.2732 37.3915C78.3696 37.3975 78.4663 37.3975 78.5627 37.3915C78.6999 37.4009 78.8295 37.4582 78.9289 37.5534C78.9336 37.5701 78.9336 37.5878 78.9289 37.6045C78.948 37.7659 78.948 37.9289 78.9289 38.0902V42.836C79.0164 43.0339 79.0459 43.2525 79.014 43.4665Z" fill="#7F4595"/>
<path d="M212.137 30.3196H76.3911C76.2974 30.3196 76.2208 30.4814 76.2208 30.6689C76.2208 30.8563 76.2974 31.0182 76.3911 31.0182H212.137C212.231 31.0182 212.308 30.8563 212.308 30.6689C212.308 30.4814 212.274 30.3196 212.137 30.3196Z" fill="#7F4595"/>
<path d="M127.059 21.7822C126.576 21.5305 126.035 21.4155 125.492 21.4499C124.969 21.4269 124.444 21.4497 123.925 21.5181C123.873 21.5284 123.827 21.5577 123.795 21.6002C123.764 21.6427 123.749 21.6955 123.755 21.7481C123.756 21.8102 123.781 21.8696 123.823 21.915C123.865 21.9605 123.923 21.989 123.985 21.9952H124.197C124.342 21.9952 124.393 22.0719 124.41 22.123C124.426 22.2389 124.426 22.3564 124.41 22.4723V26.7325C124.407 26.7623 124.41 26.7926 124.42 26.8207C124.431 26.8489 124.448 26.8742 124.47 26.8944C124.51 26.9296 124.562 26.948 124.615 26.9455H125.109C125.162 26.948 125.214 26.9296 125.253 26.8944C125.291 26.849 125.312 26.7918 125.313 26.7325V22.1145C125.305 22.0723 125.305 22.0289 125.313 21.9867C125.401 21.9785 125.489 21.9785 125.577 21.9867C125.729 21.972 125.882 21.9912 126.026 22.0431C126.17 22.095 126.3 22.1782 126.408 22.2866C126.515 22.3951 126.597 22.5261 126.648 22.6702C126.699 22.8143 126.717 22.9679 126.701 23.1199C126.726 23.354 126.672 23.5897 126.547 23.7891C126.422 23.9885 126.233 24.14 126.011 24.219C125.901 24.2595 125.787 24.2908 125.671 24.3127C125.626 24.3256 125.588 24.3526 125.56 24.3894C125.532 24.4263 125.517 24.4711 125.517 24.5172C125.518 24.5765 125.539 24.6337 125.577 24.6791C125.621 24.7135 125.675 24.7316 125.73 24.7302C126.224 24.7494 126.711 24.609 127.118 24.3298C127.319 24.1808 127.482 23.9859 127.592 23.7612C127.702 23.5366 127.757 23.2888 127.752 23.0385C127.747 22.7883 127.683 22.5429 127.563 22.3228C127.444 22.1028 127.274 21.9145 127.067 21.7737L127.059 21.7822Z" fill="#009AD9"/>
<path d="M164.97 21.484H164.723C164.667 21.4858 164.612 21.5069 164.57 21.5437C164.532 21.5891 164.511 21.6463 164.51 21.7056V24.5002C164.51 25.8805 164.05 26.4514 163.088 26.4684C162.126 26.4855 161.657 25.872 161.632 24.4917V21.6885C161.634 21.6589 161.629 21.6291 161.619 21.6013C161.609 21.5734 161.593 21.548 161.572 21.5266C161.53 21.4901 161.475 21.4717 161.419 21.4755H160.244C160.214 21.4729 160.184 21.4769 160.156 21.4871C160.128 21.4973 160.103 21.5135 160.081 21.5346C160.06 21.5557 160.044 21.5812 160.034 21.6093C160.024 21.6373 160.02 21.6673 160.022 21.697C160.025 21.7484 160.045 21.7973 160.079 21.8359C160.113 21.8745 160.159 21.9006 160.21 21.91H160.414C160.576 21.91 160.653 21.9952 160.67 22.0293C160.715 22.143 160.735 22.265 160.729 22.3872V24.6706C160.681 25.3051 160.852 25.937 161.215 26.4599C161.433 26.6867 161.699 26.8617 161.994 26.9723C162.288 27.0828 162.604 27.1261 162.918 27.0989C163.213 27.1153 163.508 27.0675 163.783 26.9586C164.058 26.8498 164.306 26.6825 164.51 26.4684C164.936 25.9053 165.14 25.2043 165.081 24.5002V23.4267C165.081 23.2818 165.081 23.154 165.081 23.0347V21.6374C165.079 21.6019 165.064 21.5684 165.038 21.5433C165.013 21.5181 164.98 21.5031 164.944 21.5011L164.97 21.484Z" fill="#009AD9"/>
<path d="M204.167 21.4757H199.339C199.283 21.4728 199.228 21.491 199.185 21.5268C199.146 21.5683 199.125 21.6233 199.126 21.6801C199.131 21.8342 199.146 21.9878 199.168 22.1402C199.197 22.2835 199.214 22.4288 199.219 22.5748C199.22 22.6077 199.228 22.6401 199.243 22.6696C199.257 22.6991 199.279 22.7249 199.305 22.7452C199.351 22.7808 199.408 22.7989 199.466 22.7963C199.679 22.7963 199.688 22.6003 199.73 22.4299C199.743 22.3325 199.778 22.2392 199.833 22.1573C199.943 22.0124 200.139 22.0124 200.437 21.9954H201.289C201.289 21.9954 201.289 22.0636 201.289 22.1147V26.7498C201.287 26.7794 201.291 26.8091 201.301 26.837C201.312 26.8649 201.328 26.8903 201.348 26.9116C201.391 26.9482 201.446 26.9665 201.502 26.9628H201.978C202.034 26.9665 202.089 26.9482 202.132 26.9116C202.152 26.8903 202.168 26.8649 202.179 26.837C202.189 26.8091 202.193 26.7794 202.191 26.7498V22.1147C202.186 22.0694 202.186 22.0236 202.191 21.9784H202.83C203.247 21.9784 203.571 21.9784 203.682 22.1488C203.736 22.2307 203.771 22.3239 203.784 22.4214C203.784 22.5918 203.835 22.7537 204.048 22.7878C204.106 22.7904 204.163 22.7723 204.209 22.7367C204.235 22.7164 204.257 22.6906 204.271 22.6611C204.286 22.6316 204.294 22.5992 204.295 22.5663C204.287 22.4215 204.287 22.2765 204.295 22.1317C204.324 21.9799 204.341 21.8261 204.346 21.6716C204.346 21.6426 204.341 21.6138 204.329 21.5873C204.317 21.5608 204.3 21.5372 204.278 21.5183C204.246 21.4924 204.207 21.4775 204.167 21.4757Z" fill="#009AD9"/>
<path d="M171.748 21.4841H170.897C170.844 21.4816 170.792 21.5 170.752 21.5352C170.732 21.5552 170.716 21.5792 170.706 21.6056C170.696 21.632 170.691 21.6603 170.692 21.6886V25.3267C169.841 24.4151 169.245 23.7249 168.827 23.2393C168.41 22.7536 168.086 22.302 167.874 22.0208L167.524 21.5607C167.405 21.4755 167.354 21.5011 167.192 21.4926H166.196C166.137 21.4916 166.079 21.5128 166.034 21.5522C165.999 21.5985 165.98 21.6558 165.983 21.7141C165.983 21.7635 165.998 21.8118 166.027 21.8517C166.057 21.8916 166.098 21.921 166.145 21.9356L166.426 21.9868C166.485 21.9932 166.543 22.0135 166.593 22.0461C166.643 22.0786 166.685 22.1225 166.715 22.1742C166.775 22.2987 166.802 22.4368 166.792 22.5747V26.7582C166.793 26.8174 166.814 26.8746 166.852 26.92C166.895 26.9544 166.949 26.9725 167.005 26.9712C167.081 26.9857 167.159 26.9857 167.235 26.9712C167.279 26.9633 167.32 26.9404 167.349 26.9063C167.379 26.8721 167.395 26.8288 167.397 26.7837V23.1626C167.392 23.0917 167.392 23.0205 167.397 22.9496C167.712 23.3074 167.95 23.5971 168.112 23.8016L169.926 25.8976L170.624 26.6985C170.743 26.8519 170.837 26.9626 170.897 27.0478C170.917 27.0712 170.942 27.0901 170.969 27.1033C170.997 27.1165 171.028 27.1237 171.058 27.1245C171.089 27.1266 171.12 27.1224 171.15 27.1121C171.179 27.1019 171.206 27.0858 171.229 27.0649C171.272 27.0189 171.297 26.9579 171.297 26.8945C171.301 26.8235 171.301 26.7524 171.297 26.6815V26.494C171.297 26.2555 171.297 25.9402 171.297 25.5312V23.3415C171.27 22.9241 171.304 22.5049 171.399 22.0975C171.474 22.0604 171.555 22.0345 171.637 22.0208L171.867 21.9527C171.905 21.9349 171.938 21.9074 171.962 21.873C171.986 21.8386 172 21.7985 172.004 21.7567C172.005 21.7284 172.001 21.7 171.991 21.6735C171.98 21.647 171.964 21.6231 171.944 21.6033C171.925 21.5675 171.897 21.5374 171.863 21.5164C171.828 21.4953 171.789 21.4842 171.748 21.4841Z" fill="#009AD9"/>
<path d="M149.08 26.5195C149.02 26.5195 149.012 26.5196 148.986 26.4173C148.971 26.3156 148.971 26.2123 148.986 26.1106V21.68C148.992 21.6606 148.992 21.6398 148.986 21.6204C148.981 21.5857 148.966 21.5533 148.944 21.5266C148.921 21.522 148.898 21.522 148.875 21.5266H147.556C147.525 21.5252 147.495 21.5307 147.467 21.5424C147.439 21.5542 147.414 21.5721 147.394 21.5948C147.356 21.6402 147.335 21.6974 147.334 21.7567C147.336 21.8075 147.356 21.8561 147.39 21.8936C147.424 21.9311 147.471 21.9551 147.522 21.9612C147.676 21.9703 147.826 22.0109 147.964 22.0805C148.033 22.1989 148.06 22.3368 148.041 22.4724V26.7922C148.039 26.8177 148.039 26.8434 148.041 26.8689C148.041 26.8689 148.041 26.8689 148.041 26.9285C148.061 26.9327 148.081 26.9327 148.101 26.9285H148.986C149.047 26.9281 149.105 26.9036 149.148 26.8604C149.175 26.8303 149.193 26.7936 149.2 26.7541C149.207 26.7146 149.204 26.6739 149.19 26.6363C149.176 26.5987 149.152 26.5655 149.12 26.5405C149.089 26.5154 149.051 26.4993 149.012 26.494L149.08 26.5195Z" fill="#009AD9"/>
<path d="M198.121 26.5197C198.061 26.5197 198.053 26.5197 198.019 26.4174C198.004 26.3157 198.004 26.2124 198.019 26.1107V21.6801C198.024 21.6605 198.024 21.64 198.019 21.6205C198.019 21.6205 198.019 21.6205 197.967 21.5267C197.958 21.5227 197.948 21.5207 197.938 21.5207C197.927 21.5207 197.917 21.5227 197.908 21.5267H196.639C196.607 21.5253 196.576 21.5306 196.546 21.5423C196.517 21.5541 196.491 21.572 196.469 21.5949C196.433 21.6411 196.415 21.6985 196.418 21.7568C196.419 21.8076 196.439 21.8562 196.473 21.8937C196.508 21.9312 196.554 21.9552 196.605 21.9613C196.757 21.9696 196.905 22.0103 197.039 22.0806C197.039 22.0806 197.124 22.2339 197.124 22.4725V26.7923C197.118 26.8146 197.118 26.8382 197.124 26.8605C197.124 26.8605 197.124 26.8605 197.124 26.9372C197.124 26.9372 197.124 26.9372 197.175 26.9372H198.07C198.13 26.9367 198.189 26.9122 198.231 26.869C198.267 26.8228 198.285 26.7654 198.282 26.7071C198.28 26.6624 198.262 26.6199 198.233 26.5861C198.204 26.5522 198.164 26.5289 198.121 26.5197Z" fill="#009AD9"/>
<path d="M145.665 22.1571C145.058 21.6787 144.299 21.4366 143.528 21.4755H141.118C141.088 21.4747 141.057 21.4803 141.03 21.4921C141.002 21.5038 140.977 21.5214 140.956 21.5436C140.917 21.5883 140.895 21.646 140.896 21.7055C140.898 21.7564 140.918 21.8049 140.952 21.8425C140.987 21.88 141.033 21.9039 141.084 21.91C141.348 21.91 141.603 21.91 141.603 22.3701V26.2469C141.603 26.528 141.297 26.5025 141.237 26.5195C141.187 26.5256 141.14 26.5495 141.106 26.5871C141.071 26.6246 141.051 26.6731 141.05 26.724C141.047 26.7823 141.065 26.8397 141.101 26.8859C141.144 26.9291 141.202 26.9536 141.263 26.954H143.528C144.317 26.9782 145.086 26.7045 145.682 26.1872C145.985 25.9395 146.227 25.6256 146.389 25.2696C146.552 24.9136 146.63 24.525 146.619 24.1338C146.631 23.7518 146.551 23.3725 146.385 23.0282C146.219 22.684 145.972 22.3851 145.665 22.1571ZM144.984 25.8549C144.8 26.0809 144.567 26.2621 144.303 26.3846C144.039 26.5071 143.751 26.5679 143.46 26.5621C143.28 26.5728 143.101 26.5467 142.932 26.4854C142.804 26.4385 142.696 26.3499 142.625 26.2339C142.554 26.118 142.524 25.9815 142.54 25.8464V22.2082C142.54 22.2082 142.54 21.927 142.991 21.927H143.46C143.74 21.9087 144.02 21.9545 144.28 22.0608C144.539 22.1671 144.771 22.3311 144.958 22.5405C145.171 22.7532 145.339 23.0073 145.45 23.2872C145.561 23.5671 145.614 23.8668 145.605 24.1679C145.624 24.7864 145.408 25.389 145.001 25.8549H144.984Z" fill="#009AD9"/>
<path d="M154.938 21.4757H150.11C150.054 21.4728 150 21.491 149.957 21.5268C149.918 21.5683 149.897 21.6233 149.897 21.6801C149.889 21.8334 149.889 21.987 149.897 22.1402C149.925 22.2835 149.943 22.4288 149.948 22.5748C149.949 22.6077 149.957 22.6401 149.972 22.6696C149.986 22.6991 150.008 22.7249 150.033 22.7452C150.08 22.7808 150.137 22.7989 150.195 22.7963C150.408 22.7963 150.417 22.6003 150.459 22.4299C150.472 22.3325 150.507 22.2392 150.561 22.1573C150.672 22.0124 150.868 22.0124 151.166 21.9954H152.018C152.018 21.9954 152.018 22.0636 152.018 22.1147V26.7498C152.016 26.7794 152.02 26.8091 152.03 26.837C152.041 26.8649 152.057 26.8903 152.077 26.9116C152.12 26.9482 152.175 26.9665 152.23 26.9628H152.707C152.763 26.9665 152.818 26.9482 152.861 26.9116C152.881 26.8903 152.897 26.8649 152.908 26.837C152.918 26.8091 152.922 26.7794 152.92 26.7498V22.1147C152.915 22.0694 152.915 22.0236 152.92 21.9784H153.559C153.985 21.9784 154.3 21.9784 154.41 22.1488C154.465 22.2307 154.5 22.3239 154.513 22.4214C154.555 22.5918 154.564 22.7537 154.777 22.7878C154.835 22.7904 154.892 22.7723 154.938 22.7367C154.964 22.7164 154.986 22.6906 155 22.6611C155.015 22.6316 155.023 22.5992 155.024 22.5663C155.016 22.4215 155.016 22.2765 155.024 22.1317C155.053 21.9799 155.07 21.8261 155.075 21.6716C155.075 21.6426 155.07 21.6138 155.058 21.5873C155.046 21.5608 155.029 21.5372 155.007 21.5183C154.987 21.4993 154.964 21.4848 154.938 21.4757Z" fill="#009AD9"/>
<path d="M194.8 24.1595L193.701 23.4097C193.547 23.3256 193.417 23.2029 193.325 23.0535C193.232 22.9041 193.18 22.7333 193.173 22.5576C193.173 22.0294 193.395 21.8334 193.974 21.8164C194.114 21.8029 194.255 21.8274 194.382 21.8874C194.51 21.9473 194.619 22.0406 194.698 22.1572C194.73 22.2092 194.758 22.2633 194.783 22.3191L194.859 22.5236C194.911 22.6258 194.953 22.7366 195.106 22.7536C195.147 22.7533 195.187 22.7431 195.222 22.7238C195.258 22.7045 195.288 22.6767 195.311 22.6428C195.349 22.5785 195.366 22.5043 195.362 22.4298C195.355 22.284 195.338 22.1388 195.311 21.9953C195.303 21.8491 195.272 21.7051 195.217 21.5693C195.193 21.5339 195.161 21.5042 195.125 21.4821C195.088 21.4601 195.047 21.4462 195.004 21.4415H194.834C194.589 21.38 194.337 21.3457 194.085 21.3392C193.66 21.3255 193.243 21.4545 192.901 21.7056C192.725 21.8339 192.584 22.0038 192.491 22.2002C192.397 22.3965 192.354 22.613 192.364 22.8303C192.369 23.1363 192.467 23.4337 192.645 23.6823C192.826 23.919 193.044 24.1235 193.293 24.2873L194.008 24.7559C194.182 24.8577 194.328 25.0031 194.429 25.1778C194.531 25.3525 194.585 25.5507 194.587 25.7528C194.593 25.8578 194.576 25.9629 194.536 26.0603C194.496 26.1576 194.435 26.2447 194.357 26.3151C194.186 26.459 193.967 26.5348 193.744 26.5281C193.51 26.5314 193.281 26.4629 193.088 26.3319C192.895 26.2008 192.746 26.0136 192.662 25.7954C192.603 25.6505 192.56 25.5312 192.535 25.4546C192.52 25.4119 192.493 25.3749 192.456 25.3489C192.419 25.3229 192.375 25.3091 192.33 25.3097C192.293 25.31 192.256 25.3185 192.222 25.3347C192.188 25.3509 192.158 25.3744 192.134 25.4034C192.119 25.4679 192.119 25.535 192.134 25.5994C192.138 25.7915 192.161 25.9827 192.203 26.1703C192.262 26.46 192.288 26.6133 192.407 26.7326C192.597 26.8567 192.812 26.9381 193.037 26.9712C193.25 27.0136 193.467 27.0364 193.684 27.0393C194.129 27.0575 194.566 26.9188 194.919 26.6474C195.098 26.5041 195.242 26.3209 195.338 26.1123C195.434 25.9038 195.48 25.6756 195.473 25.446C195.462 25.1953 195.396 24.9499 195.28 24.7275C195.164 24.5051 195 24.3111 194.8 24.1595Z" fill="#009AD9"/>
<path d="M190.363 25.5226C190.108 25.1392 189.912 24.841 189.784 24.6706L189.648 24.432C189.934 24.3245 190.18 24.1322 190.353 23.881C190.527 23.6297 190.619 23.3315 190.619 23.0262C190.629 22.8093 190.584 22.5935 190.489 22.3984C190.393 22.2034 190.251 22.0354 190.074 21.91C189.606 21.6413 189.07 21.5168 188.532 21.5521C188.073 21.5521 187.681 21.5521 187.315 21.5521H186.974C186.892 21.5568 186.811 21.5771 186.736 21.6118C186.698 21.6335 186.667 21.6645 186.644 21.7017C186.622 21.739 186.609 21.7814 186.608 21.8248C186.608 21.8839 186.629 21.941 186.668 21.9851C186.708 22.0291 186.762 22.057 186.821 22.0634H187.017C187.119 22.0634 187.161 22.106 187.178 22.14C187.218 22.2162 187.235 22.3016 187.23 22.3871C187.23 22.4809 187.23 22.6342 187.23 22.8472V26.7922C187.23 26.8514 187.251 26.9086 187.289 26.954C187.333 26.9884 187.387 27.0065 187.442 27.0052H187.928C187.984 27.008 188.038 26.9898 188.081 26.954C188.119 26.9086 188.14 26.8514 188.141 26.7922V24.6536H188.294C188.401 24.6399 188.51 24.6399 188.618 24.6536C188.702 24.6838 188.772 24.7446 188.813 24.824C189.248 25.4715 189.571 25.9657 189.776 26.298C189.901 26.5067 190.038 26.7086 190.184 26.9029C190.202 26.9265 190.226 26.9456 190.252 26.9589C190.279 26.9722 190.308 26.9793 190.338 26.9796H190.942C190.986 26.9952 191.034 26.9952 191.079 26.9796C191.105 26.9616 191.126 26.9374 191.141 26.9092C191.156 26.881 191.164 26.8496 191.164 26.8177C191.164 26.741 191.164 26.7581 191.164 26.7325C191.164 26.707 190.815 26.1702 190.363 25.5226ZM188.558 24.1253C188.419 24.1376 188.28 24.1376 188.141 24.1253C188.136 24.0771 188.136 24.0286 188.141 23.9804V22.0463C188.265 22.0295 188.391 22.0295 188.515 22.0463C188.663 22.0384 188.811 22.0607 188.951 22.112C189.09 22.1633 189.217 22.2424 189.324 22.3445C189.429 22.4453 189.511 22.5675 189.564 22.7028C189.616 22.8382 189.639 22.9833 189.631 23.1284C189.605 23.8186 189.282 24.0742 188.558 24.0997V24.1253Z" fill="#009AD9"/>
<path d="M180.766 21.484H180C179.962 21.4821 179.925 21.4907 179.892 21.5087C179.859 21.5268 179.831 21.5536 179.812 21.5863C179.77 21.697 179.727 21.7737 179.71 21.8334L178.799 23.972C178.501 24.6536 178.297 25.1478 178.169 25.4375C177.556 23.9975 177.113 22.8814 176.849 22.0293C176.789 21.8419 176.747 21.6885 176.713 21.5692C176.698 21.5266 176.671 21.4896 176.634 21.4636C176.597 21.4375 176.553 21.4238 176.508 21.4244H175.367C175.315 21.4347 175.269 21.464 175.238 21.5065C175.206 21.549 175.192 21.6018 175.197 21.6544C175.201 21.7119 175.226 21.7659 175.266 21.8066C175.307 21.8474 175.361 21.872 175.418 21.876H175.589C175.696 21.9044 175.79 21.971 175.853 22.0634C175.917 22.1778 175.971 22.2976 176.014 22.4213L177.394 25.8294C177.488 26.068 177.573 26.298 177.641 26.5025C177.709 26.707 177.709 26.7496 177.735 26.8348C177.758 26.8793 177.794 26.9159 177.838 26.9402C177.881 26.9644 177.932 26.9752 177.982 26.9711C178.032 26.9696 178.08 26.9523 178.12 26.9218C178.16 26.8912 178.189 26.8488 178.203 26.8007C178.227 26.7453 178.246 26.6884 178.263 26.6303C178.441 26.1361 178.68 25.5312 178.995 24.8155C179.199 24.3383 179.395 23.8697 179.591 23.3926C179.794 22.9305 180.024 22.481 180.281 22.0464C180.357 21.9271 180.417 21.8845 180.468 21.876L180.783 21.8163C180.836 21.8081 180.884 21.7812 180.918 21.7405C180.953 21.6998 180.971 21.6481 180.971 21.5948C180.972 21.5393 180.954 21.485 180.919 21.4414C180.865 21.4361 180.81 21.4513 180.766 21.484Z" fill="#009AD9"/>
<path d="M174.439 26.5197C174.371 26.5197 174.362 26.5197 174.328 26.4174C174.314 26.3157 174.314 26.2125 174.328 26.1107V21.6886C174.335 21.6663 174.335 21.6428 174.328 21.6205C174.336 21.5897 174.336 21.5575 174.328 21.5267C174.306 21.5189 174.282 21.5189 174.26 21.5267H172.991C172.961 21.5254 172.931 21.5308 172.903 21.5426C172.875 21.5544 172.85 21.5722 172.83 21.5949C172.809 21.6162 172.793 21.6417 172.783 21.6695C172.772 21.6974 172.768 21.7271 172.77 21.7568C172.772 21.8077 172.791 21.8562 172.826 21.8937C172.86 21.9312 172.907 21.9552 172.957 21.9613C173.112 21.9704 173.262 22.011 173.4 22.0806C173.469 22.199 173.496 22.337 173.477 22.4725V26.7923C173.47 26.8145 173.47 26.8383 173.477 26.8605C173.477 26.8605 173.477 26.8605 173.477 26.9372C173.499 26.9592 173.525 26.9766 173.553 26.9883H174.439C174.5 26.9879 174.558 26.9634 174.601 26.9201C174.639 26.8747 174.66 26.8175 174.66 26.7582C174.664 26.7275 174.661 26.6962 174.652 26.6668C174.642 26.6373 174.626 26.6102 174.605 26.5875C174.584 26.5648 174.558 26.5469 174.53 26.5352C174.501 26.5235 174.47 26.5182 174.439 26.5197Z" fill="#009AD9"/>
<path d="M185.458 26.3747H183.389C183.323 26.3712 183.26 26.3445 183.212 26.2993C183.164 26.2541 183.133 26.1933 183.125 26.1276C183.125 25.9828 183.125 25.9657 183.125 25.5908V24.4235C183.119 24.4011 183.119 24.3778 183.125 24.3554H184.7C184.739 24.3564 184.777 24.3466 184.81 24.327C184.843 24.3074 184.87 24.2789 184.888 24.2446C184.919 24.1872 184.933 24.1224 184.93 24.0572C184.933 23.9989 184.915 23.9415 184.879 23.8953C184.861 23.869 184.837 23.8475 184.809 23.8326C184.781 23.8178 184.749 23.81 184.717 23.8101H183.116V22.106C183.111 22.0693 183.111 22.032 183.116 21.9952H183.857C184.071 21.9875 184.285 22.0018 184.496 22.0379C184.6 22.0661 184.695 22.1222 184.77 22.2003C184.845 22.2783 184.898 22.3753 184.922 22.4809L184.973 22.6428C184.988 22.6945 185.019 22.74 185.062 22.7723C185.105 22.8046 185.157 22.822 185.211 22.8217C185.241 22.8236 185.271 22.8193 185.298 22.809C185.326 22.7987 185.352 22.7828 185.373 22.7621C185.396 22.7402 185.414 22.7137 185.426 22.6843C185.437 22.6549 185.443 22.6233 185.441 22.5917C185.441 22.5065 185.441 22.3446 185.441 22.089C185.431 21.9284 185.408 21.7688 185.373 21.6118C185.357 21.5676 185.329 21.5292 185.291 21.5018C185.252 21.4744 185.207 21.4593 185.16 21.4585H181.813C181.781 21.4586 181.75 21.4655 181.72 21.4787C181.691 21.4919 181.665 21.5112 181.643 21.5351C181.607 21.5843 181.589 21.6445 181.592 21.7056C181.593 21.7596 181.614 21.8115 181.65 21.852C181.686 21.8925 181.734 21.9191 181.788 21.9271H181.958C182.048 21.9397 182.13 21.9853 182.188 22.0549C182.228 22.1549 182.246 22.2626 182.239 22.3701V26.7155C182.24 26.7748 182.261 26.832 182.299 26.8774C182.342 26.9118 182.397 26.9299 182.452 26.9285H185.467C185.51 26.9256 185.551 26.9115 185.587 26.8876C185.623 26.8637 185.652 26.8308 185.671 26.7922C185.705 26.7355 185.722 26.6707 185.722 26.6048C185.705 26.4855 185.56 26.4173 185.458 26.3747Z" fill="#009AD9"/>
<path d="M133.386 21.4841H133.147C133.09 21.4835 133.035 21.5049 132.994 21.5437C132.973 21.565 132.957 21.5905 132.947 21.6183C132.937 21.6462 132.932 21.6759 132.934 21.7056V24.5003C132.934 25.8806 132.466 26.4514 131.504 26.4685C130.541 26.4855 130.073 25.872 130.056 24.4918V21.6886C130.056 21.6293 130.034 21.5721 129.996 21.5267C129.953 21.4923 129.899 21.4742 129.843 21.4755H128.66C128.631 21.4743 128.603 21.479 128.577 21.4893C128.55 21.4995 128.526 21.5152 128.506 21.5352C128.483 21.555 128.466 21.5802 128.456 21.6085C128.445 21.6368 128.442 21.6673 128.447 21.6971C128.445 21.75 128.463 21.8017 128.498 21.8419C128.534 21.8795 128.582 21.9035 128.634 21.9101H128.838C129 21.9101 129.068 21.9953 129.085 22.0294C129.136 22.1416 129.156 22.2648 129.145 22.3872V24.6707C129.095 25.308 129.267 25.9429 129.63 26.4685C129.849 26.6942 130.116 26.8686 130.41 26.9791C130.705 27.0896 131.02 27.1335 131.333 27.1075C131.629 27.1239 131.924 27.076 132.199 26.9672C132.474 26.8583 132.722 26.6911 132.926 26.477C133.355 25.915 133.561 25.2139 133.505 24.5088V21.646C133.506 21.6277 133.503 21.6094 133.497 21.5923C133.491 21.5752 133.481 21.5597 133.468 21.5468C133.455 21.5338 133.439 21.5238 133.422 21.5174C133.405 21.511 133.387 21.5084 133.369 21.5096L133.386 21.4841Z" fill="#009AD9"/>
<path d="M107.439 26.6984C107.439 26.5962 107.149 25.8464 106.664 24.432C106.127 22.8557 105.812 21.9867 105.812 21.8759C105.812 21.7651 105.77 21.731 105.744 21.6629C105.719 21.5947 105.667 21.4158 105.497 21.3902C105.322 21.4453 105.165 21.5486 105.046 21.6884C104.941 21.8952 104.859 22.1122 104.799 22.336L103.096 26.741V26.7921C103.095 26.8224 103.101 26.8525 103.112 26.8804C103.124 26.9083 103.142 26.9334 103.164 26.954C103.208 26.9867 103.263 27.0019 103.317 26.9966H103.564C103.624 26.9966 103.692 26.9966 103.76 26.8688L103.973 26.315L104.407 25.1221C104.42 25.0712 104.44 25.0224 104.467 24.9773H105.778C105.872 24.9773 105.88 24.9773 105.923 25.0795L106.502 26.8603C106.511 26.9009 106.534 26.9372 106.567 26.9634C106.599 26.9897 106.639 27.0043 106.681 27.0051H107.251C107.304 27.0067 107.356 26.9885 107.396 26.954C107.418 26.9351 107.436 26.9115 107.447 26.885C107.459 26.8585 107.465 26.8297 107.464 26.8007C107.447 26.6899 107.447 26.7154 107.439 26.6984ZM105.65 24.3383H104.612C104.612 24.2019 104.748 23.9208 104.901 23.4862C105.054 23.0517 105.105 22.9324 105.174 22.762C105.233 22.9324 105.318 23.171 105.421 23.4777L105.633 24.1338C105.646 24.1974 105.663 24.26 105.685 24.3212L105.65 24.3383Z" fill="#009AD9"/>
<path d="M101.776 25.5228C101.521 25.1394 101.325 24.8412 101.206 24.6708C101.086 24.5004 101.095 24.4833 101.061 24.4322C101.353 24.3184 101.602 24.1159 101.773 23.853C101.944 23.5901 102.029 23.2801 102.015 22.9667C102.024 22.7499 101.98 22.534 101.884 22.339C101.789 22.1439 101.647 21.976 101.47 21.8505C101.002 21.5818 100.466 21.4573 99.9282 21.4927C99.4684 21.4927 99.0767 21.4927 98.7105 21.4927H98.3699C98.2863 21.4892 98.2035 21.5099 98.1314 21.5523C98.0933 21.5712 98.0612 21.6004 98.0386 21.6365C98.0161 21.6726 98.004 21.7142 98.0037 21.7568C98.0033 21.8159 98.0249 21.873 98.0643 21.9171C98.1036 21.9612 98.1579 21.9891 98.2166 21.9954H98.4124C98.445 21.993 98.4776 21.9987 98.5073 22.0121C98.5371 22.0255 98.563 22.0461 98.5827 22.0721C98.6175 22.1498 98.6349 22.2341 98.6338 22.3192C98.6338 22.4129 98.6338 22.5662 98.6338 22.7793V26.7242C98.6301 26.754 98.6335 26.7842 98.6439 26.8124C98.6543 26.8406 98.6713 26.8658 98.6935 26.8861C98.7332 26.9213 98.7852 26.9396 98.8382 26.9372H99.3236C99.3794 26.941 99.4345 26.9226 99.4769 26.8861C99.5149 26.8406 99.536 26.7834 99.5365 26.7242V24.5856H99.6898C99.7972 24.5715 99.906 24.5715 100.013 24.5856C100.099 24.6174 100.171 24.6775 100.218 24.756C100.644 25.4035 100.967 25.8977 101.171 26.23L101.58 26.8349C101.599 26.8581 101.622 26.8769 101.648 26.8901C101.675 26.9034 101.704 26.9107 101.733 26.9116H102.338C102.385 26.9266 102.436 26.9266 102.483 26.9116C102.507 26.8918 102.526 26.8671 102.539 26.8391C102.552 26.8112 102.559 26.7807 102.56 26.7497C102.565 26.7188 102.565 26.687 102.56 26.656C102.474 26.5538 102.227 26.1704 101.776 25.5228ZM99.9793 24.1255C99.8376 24.138 99.6952 24.138 99.5535 24.1255C99.5484 24.0773 99.5484 24.0288 99.5535 23.9806V22.1147C99.5484 22.0865 99.5484 22.0576 99.5535 22.0295C99.675 22.0124 99.7982 22.0124 99.9197 22.0295C100.075 22.0176 100.23 22.038 100.377 22.0893C100.523 22.1407 100.658 22.2218 100.771 22.3277C100.873 22.4301 100.952 22.5529 101.004 22.6879C101.055 22.823 101.077 22.9673 101.069 23.1115C101.018 23.8187 100.72 24.0743 99.9793 24.0999V24.1255Z" fill="#009AD9"/>
<path d="M209.813 21.4755H209.123C209.089 21.4761 209.055 21.484 209.024 21.4987C208.993 21.5134 208.966 21.5345 208.944 21.5607C208.885 21.6715 208.842 21.7482 208.816 21.8078L208.484 22.3872L207.548 24.0061C207.198 23.3244 206.934 22.8047 206.764 22.4469L206.475 21.8589L206.347 21.6119C206.329 21.5795 206.303 21.5523 206.272 21.5328C206.241 21.5134 206.205 21.5025 206.168 21.5011H205.657C205.427 21.5011 205.248 21.5011 205.129 21.5011C205.099 21.5008 205.069 21.5067 205.041 21.5184C205.013 21.5302 204.988 21.5475 204.967 21.5693C204.929 21.6147 204.908 21.6719 204.908 21.7311C204.91 21.7778 204.925 21.8228 204.952 21.8606C204.98 21.8985 205.017 21.9275 205.061 21.9442L205.342 22.0038C205.442 22.0294 205.53 22.0899 205.589 22.1742C205.657 22.2817 205.72 22.3926 205.776 22.5065L206.696 24.3213C206.78 24.466 206.846 24.6205 206.892 24.7814C206.911 24.9342 206.911 25.0888 206.892 25.2415V26.7667C206.89 26.7963 206.894 26.826 206.905 26.8539C206.915 26.8818 206.931 26.9072 206.951 26.9286C206.994 26.9651 207.049 26.9834 207.105 26.9797H207.582C207.637 26.9834 207.693 26.9651 207.735 26.9286C207.756 26.9072 207.772 26.8818 207.782 26.8539C207.792 26.826 207.796 26.7963 207.795 26.7667V25.233C207.788 25.024 207.808 24.815 207.854 24.611C207.932 24.4062 208.028 24.2093 208.144 24.0231L208.638 23.1711C208.91 22.6939 209.08 22.4128 209.14 22.319C209.239 22.1586 209.394 22.0403 209.574 21.9868H209.736C209.791 21.9806 209.842 21.9548 209.88 21.9142C209.917 21.8735 209.939 21.8206 209.94 21.7652C209.946 21.7126 209.931 21.6598 209.9 21.6173C209.868 21.5748 209.822 21.5455 209.77 21.5352L209.813 21.4755Z" fill="#009AD9"/>
<path d="M96.7943 21.4842H96.5559C96.4991 21.4836 96.4442 21.505 96.4026 21.5438C96.3646 21.5892 96.3435 21.6465 96.343 21.7057V24.5004C96.343 25.8807 95.8832 26.4515 94.9124 26.4686C93.9416 26.4856 93.4818 25.8722 93.4648 24.4919V21.6887C93.4643 21.6294 93.4432 21.5722 93.4052 21.5268C93.3623 21.491 93.3076 21.4728 93.2519 21.4757H92.0767C92.0472 21.4743 92.0176 21.4788 91.9898 21.4891C91.962 21.4993 91.9366 21.515 91.9149 21.5353C91.8756 21.5799 91.8543 21.6377 91.8553 21.6972C91.8538 21.7501 91.872 21.8018 91.9064 21.842C91.9439 21.8781 91.9914 21.9019 92.0427 21.9102H92.247C92.4088 21.9102 92.4855 21.9954 92.5025 22.0295C92.5485 22.1428 92.566 22.2657 92.5536 22.3873V24.6708C92.5038 25.3081 92.6753 25.943 93.039 26.4686C93.2584 26.6939 93.5248 26.8679 93.8192 26.9784C94.1136 27.0889 94.4287 27.133 94.7421 27.1076C95.0372 27.1229 95.3321 27.0745 95.6069 26.9657C95.8816 26.8569 96.1298 26.6903 96.3345 26.4771C96.7609 25.9139 96.9641 25.2129 96.9051 24.5089V23.4353C96.9051 23.2905 96.9051 23.1627 96.9051 23.0434V21.6461C96.9036 21.6104 96.8884 21.5768 96.8625 21.5523C96.8482 21.5225 96.8242 21.4984 96.7943 21.4842Z" fill="#009AD9"/>
<path d="M90.6974 21.4756H89.5563C89.5005 21.4718 89.4454 21.4902 89.403 21.5267C89.3823 21.5481 89.3664 21.5735 89.3561 21.6014C89.3458 21.6293 89.3415 21.659 89.3434 21.6886V23.6994C89.3503 23.736 89.3503 23.7736 89.3434 23.8102H86.6099C86.6021 23.7737 86.6021 23.7359 86.6099 23.6994V21.6886C86.6118 21.659 86.6075 21.6293 86.5972 21.6014C86.587 21.5735 86.571 21.5481 86.5503 21.5267C86.5079 21.4902 86.4528 21.4718 86.397 21.4756H85.2048C85.1746 21.4748 85.1445 21.4805 85.1166 21.4922C85.0887 21.504 85.0636 21.5216 85.0431 21.5438C85.0219 21.5648 85.0056 21.5902 84.9953 21.6181C84.985 21.6461 84.981 21.676 84.9834 21.7057C84.9851 21.7565 85.0049 21.8051 85.0393 21.8426C85.0736 21.8801 85.1203 21.9041 85.1708 21.9102C85.3281 21.9138 85.4814 21.961 85.6136 22.0465C85.6802 22.181 85.7068 22.3318 85.6902 22.481V26.7412C85.6883 26.7708 85.6927 26.8006 85.7029 26.8284C85.7132 26.8563 85.7292 26.8817 85.7498 26.9031C85.7896 26.9383 85.8415 26.9566 85.8946 26.9542H86.38C86.4358 26.958 86.4909 26.9396 86.5333 26.9031C86.5539 26.8817 86.5699 26.8563 86.5802 26.8284C86.5905 26.8006 86.5948 26.7708 86.5929 26.7412V24.5259C86.5851 24.4894 86.5851 24.4516 86.5929 24.4151H89.3093C89.3172 24.4516 89.3172 24.4894 89.3093 24.5259V26.7412C89.3074 26.7708 89.3118 26.8006 89.322 26.8284C89.3323 26.8563 89.3483 26.8817 89.3689 26.9031C89.4113 26.9396 89.4664 26.958 89.5222 26.9542H90.0076C90.0607 26.9566 90.1126 26.9383 90.1524 26.9031C90.173 26.8817 90.189 26.8563 90.1993 26.8284C90.2096 26.8006 90.2139 26.7708 90.212 26.7412V22.3958C90.1982 22.2649 90.2282 22.1331 90.2971 22.0209C90.4291 21.9698 90.5661 21.9327 90.7059 21.9102C90.7548 21.9022 90.7995 21.8775 90.8321 21.8401C90.8648 21.8028 90.8834 21.7552 90.8847 21.7057C90.8889 21.6472 90.8707 21.5893 90.8336 21.5438C90.7965 21.5073 90.7488 21.4834 90.6974 21.4756Z" fill="#009AD9"/>
<path d="M118.509 21.4756H117.232C117.201 21.4735 117.171 21.4787 117.143 21.4905C117.115 21.5023 117.09 21.5206 117.07 21.5437C117.031 21.5884 117.009 21.6461 117.01 21.7056C117.014 21.7572 117.036 21.8059 117.071 21.8433C117.107 21.8806 117.155 21.9043 117.206 21.9101C117.291 21.9163 117.377 21.9163 117.462 21.9101C117.632 21.9101 117.717 22.0123 117.743 22.0805C117.786 22.2239 117.8 22.3745 117.785 22.5236V27.1245C117.785 27.6528 117.496 27.8062 117.13 27.7721L116.789 27.7125C116.697 27.6942 116.602 27.7087 116.519 27.7536C116.437 27.7985 116.373 27.8708 116.339 27.958C116.304 28.0452 116.301 28.1417 116.331 28.2307C116.36 28.3198 116.42 28.3957 116.499 28.4452C116.575 28.4945 116.665 28.5183 116.755 28.5134C117.131 28.5164 117.498 28.4001 117.804 28.1812C118.11 27.9623 118.339 27.6521 118.458 27.295C118.615 26.8027 118.682 26.2859 118.654 25.7698V21.6886C118.655 21.6424 118.642 21.597 118.616 21.5588C118.59 21.5207 118.552 21.4915 118.509 21.4756Z" fill="#009AD9"/>
<path d="M83.3143 22.1571C82.7077 21.6787 81.9483 21.4366 81.1769 21.4755H78.767C78.7368 21.4747 78.7067 21.4803 78.6788 21.4921C78.6509 21.5038 78.6258 21.5214 78.6052 21.5436C78.5841 21.5646 78.5678 21.59 78.5575 21.618C78.5472 21.6459 78.5432 21.6758 78.5456 21.7055C78.5473 21.7564 78.5671 21.8049 78.6015 21.8425C78.6358 21.88 78.6825 21.9039 78.733 21.91C78.997 21.91 79.2439 21.91 79.2439 22.3701V26.2469C79.2439 26.528 78.9459 26.5025 78.8863 26.5195C78.8342 26.5236 78.7855 26.5468 78.7494 26.5845C78.7133 26.6222 78.6923 26.6718 78.6904 26.724C78.6909 26.7832 78.712 26.8405 78.75 26.8859C78.7928 26.9291 78.851 26.9536 78.9118 26.954H81.1769C81.9658 26.9782 82.735 26.7045 83.3314 26.1872C83.6342 25.9395 83.8761 25.6256 84.0385 25.2696C84.2009 24.9136 84.2794 24.525 84.2681 24.1338C84.2803 23.7518 84.1999 23.3725 84.0339 23.0282C83.8678 22.684 83.6209 22.3851 83.3143 22.1571ZM82.6331 25.8549C82.4494 26.0809 82.2167 26.2621 81.9526 26.3846C81.6884 26.5071 81.3999 26.5679 81.1088 26.5621C80.9294 26.5728 80.7498 26.5467 80.5808 26.4854C80.4524 26.4398 80.3434 26.3515 80.2721 26.2352C80.2008 26.1189 80.1715 25.9817 80.1891 25.8464V22.2082C80.1891 22.2082 80.1891 21.927 80.6404 21.927H81.1344C81.4143 21.9094 81.6945 21.9554 81.9541 22.0617C82.2137 22.1679 82.4458 22.3316 82.6331 22.5405C82.8446 22.7544 83.011 23.0087 83.1222 23.2883C83.2334 23.5679 83.2871 23.8671 83.2803 24.1679C83.2869 24.7921 83.0554 25.3954 82.6331 25.8549Z" fill="#009AD9"/>
<path d="M140.121 21.4842H139.27C139.214 21.4804 139.159 21.4987 139.117 21.5353C139.08 21.5781 139.059 21.6322 139.057 21.6886V25.3268C138.205 24.4152 137.618 23.725 137.201 23.2393C136.783 22.7537 136.451 22.3021 136.247 22.0209C136.042 21.7398 135.983 21.6801 135.889 21.5608C135.77 21.4756 135.71 21.5012 135.549 21.4927H134.535C134.478 21.4921 134.423 21.5135 134.382 21.5523C134.344 21.5977 134.323 21.655 134.322 21.7142C134.322 21.7647 134.339 21.8138 134.37 21.8538C134.401 21.8939 134.444 21.9226 134.493 21.9357L134.765 21.9869C134.825 21.9933 134.882 22.0136 134.932 22.0462C134.982 22.0787 135.024 22.1226 135.055 22.1743C135.123 22.2961 135.153 22.4357 135.14 22.5748V26.7582C135.137 26.8166 135.155 26.8739 135.191 26.9201C135.235 26.9545 135.289 26.9726 135.344 26.9713C135.423 26.9853 135.504 26.9853 135.583 26.9713C135.625 26.9617 135.664 26.9381 135.692 26.9041C135.719 26.8701 135.735 26.8277 135.736 26.7838V23.1627C135.736 23.0775 135.736 23.0093 135.736 22.9497C136.051 23.3075 136.289 23.5972 136.451 23.8017L138.265 25.8977L138.963 26.6986L139.244 27.0479C139.264 27.0717 139.289 27.0909 139.317 27.1041C139.345 27.1174 139.375 27.1244 139.406 27.1246C139.438 27.127 139.469 27.1228 139.499 27.1123C139.529 27.1018 139.557 27.0852 139.58 27.0636C139.603 27.042 139.621 27.0158 139.634 26.9867C139.647 26.9577 139.653 26.9263 139.653 26.8946C139.653 26.8349 139.653 26.7668 139.653 26.6816C139.65 26.6191 139.65 26.5566 139.653 26.4941C139.653 26.2556 139.653 25.9403 139.653 25.5313V23.3416C139.62 22.9241 139.655 22.5042 139.755 22.0976C139.829 22.057 139.91 22.0309 139.994 22.0209L140.215 21.9528C140.254 21.9365 140.288 21.9095 140.312 21.8747C140.336 21.84 140.35 21.7991 140.351 21.7568C140.351 21.6995 140.329 21.6444 140.29 21.6031C140.25 21.5618 140.196 21.5375 140.138 21.5353L140.121 21.4842Z" fill="#009AD9"/>
<path d="M115.733 26.5196C115.665 26.5196 115.656 26.5196 115.631 26.4174C115.616 26.3185 115.616 26.218 115.631 26.1191V21.68C115.636 21.6576 115.636 21.6344 115.631 21.6119C115.63 21.5935 115.624 21.5756 115.616 21.5594C115.607 21.5433 115.594 21.5292 115.58 21.5182H114.2C114.17 21.5168 114.14 21.5222 114.112 21.534C114.084 21.5458 114.059 21.5636 114.038 21.5863C114 21.6317 113.979 21.689 113.979 21.7482C113.98 21.7991 114 21.8476 114.035 21.8852C114.069 21.9227 114.116 21.9466 114.166 21.9527C114.321 21.9601 114.472 22.0008 114.609 22.072C114.609 22.072 114.694 22.2254 114.694 22.4639V26.7837C114.692 26.8064 114.692 26.8292 114.694 26.8519C114.694 26.8519 114.694 26.8519 114.694 26.9286H115.639C115.7 26.9282 115.758 26.9037 115.801 26.8604C115.839 26.815 115.86 26.7578 115.861 26.6985C115.858 26.6599 115.844 26.6228 115.822 26.5913C115.799 26.5598 115.769 26.535 115.733 26.5196Z" fill="#009AD9"/>
<path d="M113.008 21.4755H112.233C112.233 21.4755 112.233 21.4755 112.131 21.5352L110.087 23.4352C109.994 23.5375 109.602 23.8527 109.602 23.8527C109.602 23.8527 109.602 23.7675 109.602 23.6993V23.0433C109.602 22.7536 109.602 22.5406 109.602 22.3872C109.602 22.2338 109.602 21.9527 109.772 21.9527H109.951C110.007 21.9484 110.059 21.9231 110.097 21.8821C110.134 21.841 110.155 21.7871 110.155 21.7311C110.158 21.6701 110.14 21.6099 110.104 21.5607C110.084 21.5358 110.057 21.516 110.028 21.5027C109.998 21.4894 109.966 21.483 109.934 21.4841C109.84 21.4841 109.798 21.4841 109.602 21.4841C109.406 21.4841 109.261 21.4841 109.168 21.4841C109.074 21.4841 108.904 21.4841 108.691 21.4841C108.478 21.4841 108.35 21.4841 108.239 21.4841C108.207 21.4847 108.176 21.4918 108.146 21.505C108.117 21.5182 108.091 21.5371 108.069 21.5607C108.033 21.6099 108.015 21.6701 108.018 21.7311C108.02 21.7892 108.044 21.8443 108.085 21.8854C108.126 21.9265 108.181 21.9506 108.239 21.9527C108.33 21.9611 108.421 21.9611 108.512 21.9527C108.657 21.9527 108.631 22.0379 108.657 22.089C108.68 22.1957 108.68 22.3061 108.657 22.4128V26.7496C108.656 26.7798 108.662 26.8098 108.674 26.8376C108.686 26.8655 108.703 26.8906 108.725 26.9115C108.764 26.9467 108.816 26.9651 108.869 26.9626H109.355C109.411 26.9655 109.465 26.9473 109.508 26.9115C109.546 26.8661 109.567 26.8089 109.568 26.7496V24.6281C109.554 24.5491 109.554 24.4684 109.568 24.3895C109.707 24.4587 109.827 24.5611 109.917 24.6877L110.828 25.7101L111.552 26.5622L111.867 26.9115C111.887 26.9353 111.911 26.9545 111.939 26.9677C111.967 26.9809 111.998 26.9879 112.029 26.9882H112.625C112.672 27.0032 112.723 27.0032 112.77 26.9882C112.793 26.9684 112.813 26.9437 112.826 26.9157C112.839 26.8877 112.846 26.8572 112.846 26.8263C112.846 26.7696 112.825 26.715 112.787 26.6729C112.48 26.3236 112.259 26.068 112.097 25.8976C111.245 24.9433 110.734 24.3298 110.504 24.0572C110.464 24.02 110.43 23.9769 110.402 23.9294C110.441 23.8776 110.483 23.8292 110.53 23.7845C111.103 23.1816 111.72 22.6233 112.378 22.1146C112.53 22.0305 112.693 21.9702 112.863 21.9356H113.017C113.068 21.9277 113.115 21.902 113.149 21.8631C113.183 21.8242 113.202 21.7745 113.204 21.7226C113.207 21.6935 113.205 21.664 113.197 21.6357C113.189 21.6075 113.176 21.5811 113.158 21.5581C113.139 21.5351 113.117 21.516 113.091 21.5018C113.065 21.4876 113.037 21.4787 113.008 21.4755Z" fill="#009AD9"/>
<path d="M20.9271 25.9336C18.6437 24.1731 15.8024 23.2925 12.9226 23.4526L4.97248 23.6209L2.45103 23.4526H2L2.03261 23.876L2.38583 23.9086C3.78784 24.0389 4.48341 24.6795 4.48341 25.8304V41.6501C4.5163 41.9112 4.48937 42.1764 4.40464 42.4256C4.31992 42.6749 4.17962 42.9016 3.99433 43.0887C3.51772 43.397 2.96439 43.5663 2.39669 43.5773L2.04347 43.6099L2.01087 44.0333L4.97791 43.8379L12.9281 43.903C15.8812 43.9838 18.7585 42.9617 20.9978 41.0366C22.1288 40.0982 23.0327 38.9163 23.6416 37.5794C24.2505 36.2424 24.5486 34.7852 24.5137 33.3168C24.5534 31.8888 24.2482 30.4723 23.6239 29.1871C22.9996 27.9019 22.0746 26.7859 20.9271 25.9336ZM19.0034 40.2494C17.2808 42.1604 15.5473 43.1159 12.8955 43.1159C11.7786 43.1751 10.6592 43.0653 9.5752 42.7901C8.54271 42.3992 8.02647 41.5415 8.02647 40.2168V24.4732L12.9172 24.3429C15.4984 24.2778 17.2047 25.1247 18.9274 26.8836C19.7688 27.7489 20.4276 28.7745 20.8645 29.8992C21.3014 31.0239 21.5075 32.2249 21.4705 33.4308C21.5461 35.9344 20.6639 38.3727 19.0034 40.2494ZM40.49 24.5981C39.0625 23.8014 37.4457 23.4055 35.8112 23.4526C35.2678 23.4526 34.4147 23.4797 33.2952 23.5394C32.1758 23.5991 30.0021 23.6209 29.4424 23.6209C29.2685 23.6209 28.4317 23.5666 26.9264 23.4526H26.4754L26.5026 23.876L26.8612 23.9086C28.256 24.0389 28.9552 24.6795 28.9588 25.8304V41.6501C28.9924 41.9108 28.9663 42.1757 28.8825 42.4249C28.7988 42.6741 28.6595 42.9011 28.4752 43.0887C27.9978 43.3955 27.4449 43.5646 26.8775 43.5773L26.5189 43.6099L26.4917 44.0333L29.4587 43.8379H32.0236L34.5397 44.0008L34.9907 44.0333L34.9581 43.6099L34.6049 43.5773C33.2029 43.447 32.5073 42.8064 32.5073 41.6555V25.8033C32.5073 25.0161 32.7192 24.5329 33.1485 24.3375C33.7321 24.213 34.33 24.1692 34.9255 24.2072C36.2506 24.1494 37.5469 24.6044 38.5446 25.4775C39.1216 25.9245 39.5837 26.5023 39.8927 27.1631C40.2017 27.824 40.3487 28.5488 40.3216 29.2777C40.3216 30.9552 39.6858 33.0453 38.4142 34.0768C37.1426 35.1083 36.121 35.5969 34.4418 35.5263L33.6322 35.4883V35.7869L34.719 35.8792C36.6896 35.9281 38.6243 35.346 40.2401 34.218C41.0775 33.6088 41.7551 32.8064 42.215 31.879C42.6748 30.9517 42.9034 29.9269 42.8811 28.8923C42.8977 28.0293 42.6852 27.1773 42.2652 26.423C41.8452 25.6687 41.2327 25.0391 40.49 24.5981ZM63.4221 24.2886C62.3353 25.4938 62.3788 27.8662 62.3788 27.8662V35.2386C62.3788 40.6674 61.1072 43.1539 56.9446 43.1539C52.9179 43.1539 51.6626 40.5154 51.6626 36.1669V27.3451C51.6626 24.2452 50.2172 23.5991 47.8587 23.7294L44.7939 23.6209L44.7504 24.2018L45.4025 24.2452C47.2338 24.2452 47.8968 25.483 47.8968 27.3451V35.2386C47.8968 41.2918 51.0432 44.3971 56.9935 44.3971C61.6832 44.3971 64.7644 41.2918 64.7644 35.2386V26.5524C64.7644 24.1312 65.7208 23.2951 65.7208 23.2951C65.2908 23.2838 64.8635 23.3669 64.4692 23.5386C64.0748 23.7103 63.7229 23.9663 63.4384 24.2886H63.4221Z" fill="#7F4595"/>
<path d="M67.4844 19.9755C67.3845 19.8737 67.2792 19.7775 67.169 19.6871C67.2016 19.6871 66.0813 19.9048 66.2662 19.9701C66.4984 20.065 66.7092 20.2057 66.8862 20.3836C67.1907 20.8679 66.6088 21.0475 64.5694 21.3957C63.3893 21.646 63.0249 22.3698 62.84 23.5723C62.84 23.7301 63.188 22.5276 64.3083 22.3534C66.549 22.0759 68.4742 21.2651 67.6149 20.1442L67.4844 19.9755ZM68.5721 6.68729C69.1159 7.10629 70.2961 9.35364 71.0955 10.3168C71.0955 10.3168 71.6394 11.0024 71.8787 11.2691C73.5972 13.1518 74.2825 12.0309 74.0214 10.7249C73.9942 10.5943 73.9888 10.4256 73.9725 10.3005C73.9562 10.1753 73.9127 10.0121 73.8909 9.89235C73.9183 10.0009 73.9329 10.1123 73.9344 10.2243C73.9344 10.4692 73.8637 12.5478 71.2152 9.27746C70.1275 7.96605 69.687 6.7798 69.1975 6.36624C68.9554 6.18513 68.6725 6.06655 68.3737 6.02099C68.0748 5.97543 67.7694 6.0043 67.4844 6.10505L67.2995 6.18667C67.1853 6.23564 67.0385 6.31727 66.9242 6.37712C67.1964 6.26709 67.4945 6.23783 67.7829 6.29283C68.0713 6.34784 68.3377 6.48478 68.5503 6.68729H68.5721ZM66.7557 7.47087C67.4355 8.3524 68.6319 10.8283 69.9807 12.4063C69.9807 12.4063 70.7094 13.326 71.0683 13.7123C73.7876 16.7269 74.8318 14.8006 74.8753 13.5817C74.8753 13.3912 74.8753 13.1409 74.8753 12.9505C74.8753 12.76 74.8263 12.5206 74.8046 12.341C74.8312 12.5065 74.8403 12.6743 74.8318 12.8417C74.8046 13.2062 74.4565 16.2753 70.7964 11.5629C69.1377 9.51688 68.496 7.54705 67.6911 6.8451C67.2727 6.5347 66.7834 6.3338 66.2677 6.26062C65.752 6.18745 65.2262 6.24433 64.738 6.4261L64.4062 6.56758C64.1996 6.66008 63.9494 6.80156 63.7373 6.91584C64.3573 6.55669 66.1085 6.66008 66.7339 7.47087H66.7557ZM69.8012 19.6544C68.8005 19.3987 68.2567 18.5988 67.3539 17.3799C67.062 16.9343 66.7952 16.4729 66.5544 15.9977C63.6068 9.65836 60.8332 9.42438 60.186 11.4377L60.0881 11.8078C60.0337 12.0254 59.9902 12.3138 59.9521 12.5587C59.9725 12.4595 59.9979 12.3614 60.0283 12.2649C60.5395 10.6759 62.8291 11.9765 65.2057 16.4494C65.3145 16.6562 65.9671 17.6683 66.1955 17.9893C67.3484 19.5347 68.0119 19.8503 69.0344 20.1659C69.5218 20.2805 70.0279 20.2912 70.5198 20.1975C71.0116 20.1037 71.4783 19.9076 71.8895 19.6218L72.1288 19.4259C72.341 19.2354 72.6129 18.9634 72.8141 18.7566C72.4172 19.1386 71.9343 19.4195 71.4062 19.5757C70.8781 19.732 70.3202 19.759 69.7794 19.6544H69.8012ZM72.1995 17.2983C71.0738 17.0588 70.3233 16.1664 69.3607 14.8169L69.1649 14.5122C68.5395 13.6796 67.0167 9.75087 65.2981 8.24357C64.8256 7.83447 64.2167 7.61803 63.5921 7.63718C62.9675 7.65634 62.3729 7.90968 61.9263 8.34696L61.5891 8.73874C61.4477 8.91832 61.2791 9.17407 61.1432 9.36452C61.7577 8.4449 62.9161 8.27622 64.2322 9.33731C65.668 10.5127 66.4565 12.8199 67.6965 14.7788C67.6965 14.7788 68.1968 15.5298 68.1914 15.5352C69.7468 17.6193 70.4049 18.343 71.585 18.4573C72.1029 18.4676 72.613 18.3297 73.0552 18.0598C73.4975 17.7899 73.8534 17.3992 74.0813 16.9337L74.2825 16.4875C74.3695 16.2589 74.4674 15.9433 74.5435 15.7257C74.4029 16.2279 74.0868 16.6629 73.6526 16.9516C73.2184 17.2402 72.695 17.3632 72.1778 17.2983H72.1995Z" fill="#009AD9"/>
<path d="M66.9025 8.05859C67.5972 8.4736 68.3757 8.72828 69.1812 8.80408C73.1948 9.26117 73.7984 9.19587 73.9779 10.7141C73.9779 10.5835 73.9453 10.4148 73.929 10.2896C73.9126 10.1645 73.8746 10.0012 73.8474 9.8815C73.838 9.83531 73.8252 9.78985 73.8093 9.74547C73.4286 8.56465 72.7814 8.49391 69.8066 8.16198C67.4626 7.90079 66.1574 6.69821 67.4518 6.0942L67.2669 6.17583C67.1197 6.23649 66.9778 6.30929 66.8427 6.39349C66.6985 6.48227 66.5805 6.60772 66.5006 6.75704C66.4207 6.90636 66.3818 7.07421 66.3878 7.24347C66.3939 7.41274 66.4448 7.57736 66.5352 7.72056C66.6256 7.86375 66.7523 7.98039 66.9025 8.05859ZM63.759 9.89239C64.8784 10.6026 66.1702 10.9939 67.4953 11.0242H67.5333C73.8419 11.4976 74.7502 11.2745 74.8317 13.5654C74.8317 13.375 74.8317 13.1247 74.8317 12.9342C74.8317 12.7437 74.7882 12.5043 74.761 12.3247C74.761 12.2595 74.761 12.1778 74.723 12.1125C74.2172 10.1862 73.2165 10.2842 68.5231 9.90327C64.5911 9.58222 62.3722 7.50356 64.7162 6.40981L64.3845 6.55129C64.1211 6.65471 63.8694 6.78606 63.634 6.94308C62.5517 7.66136 62.5136 9.00542 63.759 9.89239ZM64.5313 15.5516C61.6816 15.2251 59.6965 13.6797 60.1805 11.4269L60.0827 11.7969C60.0337 12.0527 59.9685 12.39 59.9304 12.6512C59.8923 13.2711 60.0033 13.891 60.2541 14.4591C60.5049 15.0271 60.8881 15.5268 61.3716 15.9162C62.2192 16.4897 63.2146 16.8053 64.2376 16.8249L64.9338 16.8793C65.9779 16.9337 74.1791 17.3146 72.0038 19.4858L71.8624 19.6055L72.1016 19.4096C72.3137 19.2137 72.5911 18.9471 72.7869 18.7403C72.8279 18.6975 72.866 18.652 72.9011 18.6043C74.8372 15.9706 66.9895 15.8454 64.5313 15.5625V15.5516ZM66.1628 12.5315C63.1499 12.5315 60.1207 10.5998 61.8937 8.33611L61.5565 8.7279C61.3894 8.92275 61.2402 9.13218 61.1105 9.35368C60.7707 9.95164 60.6698 10.6562 60.8282 11.3256C60.9866 11.995 61.3926 12.5794 61.9644 12.9614C63.0593 13.6226 64.3129 13.9743 65.5918 13.979H65.6299C72.156 14.2783 75.0547 14.5231 74.0486 16.9011L74.2498 16.4549C74.3314 16.2263 74.4402 15.9107 74.5109 15.6931C74.5109 15.6332 74.5489 15.5625 74.5598 15.5026C74.8426 14.349 75.1689 12.5424 66.1737 12.5424L66.1628 12.5315ZM63.634 18.3485C62.2689 18.071 61.2193 17.3092 60.8875 16.1719C60.8005 15.8563 60.7298 15.5461 60.7298 15.5461C60.716 15.7273 60.716 15.9092 60.7298 16.0903C60.7491 16.9372 61.0938 17.744 61.6924 18.3431C62.1518 18.7812 62.7122 19.099 63.324 19.2681H63.3947C65.6027 19.8123 68.9365 20.2585 67.343 21.3631L67.256 21.4284L67.4028 21.3468C67.5333 21.2597 67.914 20.9659 67.914 20.9659C70.432 19.143 65.5374 18.8872 63.6448 18.3594L63.634 18.3485Z" fill="#7F4595"/>
</svg>
