<svg xmlns="http://www.w3.org/2000/svg" width="90.513" height="66.404" viewBox="0 0 90.513 66.404">
  <g id="betagro-logo" transform="translate(8416 2663)">
    <g id="Group_2235" transform="translate(-8416 -2663)">
      <path id="Path_8293" d="M619.87,281.168a3.391,3.391,0,0,0-1.6-1.177,4.171,4.171,0,0,0,.835-1.046,3.589,3.589,0,0,0,.369-1.678,3.975,3.975,0,0,0-.237-1.318,3.049,3.049,0,0,0-.839-1.23,4.552,4.552,0,0,0-1.634-.9,8.446,8.446,0,0,0-2.627-.351H610.75v14.1h4.573a7.593,7.593,0,0,0,2.131-.281,5.023,5.023,0,0,0,1.647-.8,3.549,3.549,0,0,0,1.068-1.27,3.744,3.744,0,0,0,.378-1.687,3.934,3.934,0,0,0-.672-2.368m-6.159-5.153h.294a6.321,6.321,0,0,1,1,.079,2.418,2.418,0,0,1,.778.255,1.3,1.3,0,0,1,.488.474,1.639,1.639,0,0,1-.338,1.92,3,3,0,0,1-1.885.444h-.334Zm3.7,7.956a1.228,1.228,0,0,1-.382.523,2.248,2.248,0,0,1-.773.4,4.128,4.128,0,0,1-1.27.158h-1.283v-3.361h1.151a4.681,4.681,0,0,1,1.375.163,2.339,2.339,0,0,1,.8.4,1.283,1.283,0,0,1,.382.523,1.894,1.894,0,0,1,.11.606,1.7,1.7,0,0,1-.105.593Z" transform="translate(-610.75 -222.096)" fill="#7c6e2c"/>
      <path id="Path_8294" d="M646.855,273.47H637.88v14.1h9.23l-.843-2.513h-5.43v-3.317H646v-2.513h-5.162v-3.207h5.127l1.133-2.548h-.242" transform="translate(-625.961 -222.099)" fill="#7c6e2c"/>
      <path id="Path_8295" d="M674.872,273.47h-12.16l-.931,2.548h5.052v11.567h2.974V276.018h4.354l.931-2.548h-.22" transform="translate(-639.361 -222.099)" fill="#7c6e2c"/>
      <path id="Path_8296" d="M694.812,272.48l-.136.057-1.612.685-6.2,13.483,2.6,1.243s2.241-4.876,2.324-5.048h4.727l2.28,5,2.658-1.2-6.634-14.225m-2.122,8.057,1.441-3.176,1.459,3.176Z" transform="translate(-653.423 -221.544)" fill="#7c6e2c"/>
      <path id="Path_8297" d="M725.161,273.681a7.563,7.563,0,0,0-2.434,1.5,6.844,6.844,0,0,0-1.6,2.276,7.442,7.442,0,0,0,.009,5.768,6.927,6.927,0,0,0,1.634,2.3,7.6,7.6,0,0,0,2.465,1.516,8.574,8.574,0,0,0,3.08.545,10.658,10.658,0,0,0,2.526-.334,13.488,13.488,0,0,0,2.759-1.037l.083-.04V279.5l-2.917,1.331v3.686a4.935,4.935,0,0,1-1.05.329,7.088,7.088,0,0,1-1.366.119,5.3,5.3,0,0,1-2.118-.387,4.334,4.334,0,0,1-1.476-1.032,4.158,4.158,0,0,1-.874-1.467,5.152,5.152,0,0,1-.281-1.713,4.882,4.882,0,0,1,.338-1.841,4.363,4.363,0,0,1,.931-1.45,4.249,4.249,0,0,1,1.41-.958,4.563,4.563,0,0,1,1.775-.347,8.562,8.562,0,0,1,1.977.259,11.322,11.322,0,0,1,2.487,1.01l.158.079.989-2.627-.136-.057c-.606-.268-1.155-.492-1.634-.659a11.124,11.124,0,0,0-1.34-.391,8.989,8.989,0,0,0-1.186-.185l-1.155-.048a8.432,8.432,0,0,0-3.053.545" transform="translate(-672.31 -221.92)" fill="#7c6e2c"/>
      <g id="Group_2159" transform="translate(64.182 51.371)">
        <path id="Path_8298" d="M99.577,80.944a3.6,3.6,0,0,0,2.087-3.462,4.033,4.033,0,0,0-.272-1.459,3.28,3.28,0,0,0-.887-1.265,4.465,4.465,0,0,0-1.582-.87,7.64,7.64,0,0,0-2.355-.321H92.39V87.679h2.935V81.717h1.511l4.485,6.66,2.407-1.511-4.152-5.922m-1.463-2.166a2.86,2.86,0,0,1-1.722.426H95.325V76.111h1.028a2.842,2.842,0,0,1,1.766.435,1.448,1.448,0,0,1,0,2.232Z" transform="translate(-92.39 -73.566)" fill="#7c6e2c"/>
      </g>
      <path id="Path_8299" d="M796.89,277.506a7.114,7.114,0,0,0-1.612-2.293,7.754,7.754,0,0,0-2.4-1.542,8.108,8.108,0,0,0-5.94,0,7.442,7.442,0,0,0-2.39,1.542,7.089,7.089,0,0,0-1.6,7.965,7.3,7.3,0,0,0,4,3.831,8.2,8.2,0,0,0,5.94,0,7.57,7.57,0,0,0,2.408-1.542,7.3,7.3,0,0,0,1.612-2.293,7.175,7.175,0,0,0-.009-5.667m-2.759,4.648a4.456,4.456,0,0,1-2.416,2.429,4.763,4.763,0,0,1-3.581,0,4.389,4.389,0,0,1-1.441-.971,4.707,4.707,0,0,1-.971-1.458,4.784,4.784,0,0,1,0-3.638,4.678,4.678,0,0,1,.971-1.463,4.346,4.346,0,0,1,1.441-.971,4.764,4.764,0,0,1,3.581,0,4.456,4.456,0,0,1,2.416,2.429,4.922,4.922,0,0,1,0,3.642Z" transform="translate(-706.965 -221.896)" fill="#7c6e2c"/>
      <g id="Group_2160" transform="translate(19.717)">
        <path id="Path_8300" d="M76.969,16.646a9.738,9.738,0,0,0-6.12-2.8,9.783,9.783,0,0,0,.962-4.2A9.384,9.384,0,0,0,71.5,7.223,9.691,9.691,0,0,0,54.243,4.064l-.022-.04A9.692,9.692,0,0,0,37,7.161a9.339,9.339,0,0,0-.329,2.487,9.851,9.851,0,0,0,.967,4.2A9.784,9.784,0,0,0,31.574,16.6a9.655,9.655,0,0,0-2.864,6.853v.031a9.692,9.692,0,0,0,8.756,9.647h0c0,.013-.018.026-.022.035a9.678,9.678,0,0,0,16.8,9.459,9.682,9.682,0,0,0,16.786-9.5h.04a9.689,9.689,0,0,0,8.712-9.612v-.031a9.65,9.65,0,0,0-2.816-6.836M47.21,30.559a54.457,54.457,0,0,1-7.71,1.683C48.19,26.7,49.855,20.424,51.6,13.79a53.684,53.684,0,0,1,2.4-7.521c.448,10.3,5.061,14.884,9.929,19.717a53.345,53.345,0,0,1,5.307,5.83C60.1,27.058,53.83,28.754,47.21,30.559Z" transform="translate(-28.71 0)" fill="#7db041"/>
      </g>
    </g>
  </g>
</svg>
